<?xml version="1.0" encoding="UTF-8" standalone="no"?>
<svg
   xmlns:dc="http://purl.org/dc/elements/1.1/"
   xmlns:cc="http://creativecommons.org/ns#"
   xmlns:rdf="http://www.w3.org/1999/02/22-rdf-syntax-ns#"
   xmlns:svg="http://www.w3.org/2000/svg"
   xmlns="http://www.w3.org/2000/svg"
   xmlns:sodipodi="http://sodipodi.sourceforge.net/DTD/sodipodi-0.dtd"
   xmlns:inkscape="http://www.inkscape.org/namespaces/inkscape"
   width="60.0mm"
   height="69.0mm"
   viewBox="-0.000000 -6.500000 60.000000 69.000000"
   version="1.1"
   id="svg8"
   sodipodi:docname="panel_left_bracket.svg"
   inkscape:version="0.92.2 (5c3e80d, 2017-08-06)">
  <metadata
     id="metadata14">
    <rdf:RDF>
      <cc:Work
         rdf:about="">
        <dc:format>image/svg+xml</dc:format>
        <dc:type
           rdf:resource="http://purl.org/dc/dcmitype/StillImage" />
      </cc:Work>
    </rdf:RDF>
  </metadata>
  <defs
     id="defs12" />
  <sodipodi:namedview
     pagecolor="#ffffff"
     bordercolor="#666666"
     borderopacity="1"
     objecttolerance="10"
     gridtolerance="10"
     guidetolerance="10"
     inkscape:pageopacity="0"
     inkscape:pageshadow="2"
     inkscape:window-width="1253"
     inkscape:window-height="993"
     id="namedview10"
     showgrid="false"
     inkscape:zoom="0.90495169"
     inkscape:cx="113.38583"
     inkscape:cy="130.3937"
     inkscape:window-x="0"
     inkscape:window-y="0"
     inkscape:window-maximized="0"
     inkscape:current-layer="svg8" />
  <path
     inkscape:connector-curvature="0"
     style="fill:none;fill-rule:evenodd;stroke:#ff0000;stroke-width:0.1;stroke-miterlimit:4;stroke-dasharray:none;stroke-opacity:1"
     d="M 20,26.6 H 0 V 62.5 H 58.5 A 1.5,1.5 0 0 0 60,61 V 51 A 1.5,1.5 0 0 0 58.5,49.5 H 15 a 1.5,1.5 0 1 1 0,-3 H 58.5 A 1.5,1.5 0 0 0 60,45 V 10.999997 A 1.5,1.5 0 0 0 58.5,9.5 H 30.000015 a 1.5,1.5 0 1 1 0,-3 H 58.5 A 1.5,1.5 0 0 0 60,5 V -5 A 1.5,1.5 0 0 0 58.5,-6.5 H 0 v 4.9 h 20 v 28.2"
     id="Clone2D002_w0000" />
  <circle
     id="circle3"
     style="fill:none;stroke:#ff0000;stroke-width:0.1;stroke-miterlimit:4;stroke-dasharray:none;stroke-opacity:1"
     r="1.5"
     cy="-33.5"
     cx="16.5"
     transform="scale(1,-1)" />
</svg>
