<?xml version="1.0" encoding="UTF-8" standalone="no"?>
<!-- Created with Inkscape (http://www.inkscape.org/) -->

<svg
   xmlns:dc="http://purl.org/dc/elements/1.1/"
   xmlns:cc="http://creativecommons.org/ns#"
   xmlns:rdf="http://www.w3.org/1999/02/22-rdf-syntax-ns#"
   xmlns:svg="http://www.w3.org/2000/svg"
   xmlns="http://www.w3.org/2000/svg"
   xmlns:xlink="http://www.w3.org/1999/xlink"
   xmlns:sodipodi="http://sodipodi.sourceforge.net/DTD/sodipodi-0.dtd"
   xmlns:inkscape="http://www.inkscape.org/namespaces/inkscape"
   width="11mm"
   height="6mm"
   viewBox="0 0 11 6"
   version="1.1"
   id="svg6294"
   inkscape:version="0.92.2 (5c3e80d, 2017-08-06)"
   sodipodi:docname="button_medium_engrave.svg">
  <defs
     id="defs6288" />
  <sodipodi:namedview
     id="base"
     pagecolor="#ffffff"
     bordercolor="#666666"
     borderopacity="1.0"
     inkscape:pageopacity="0.0"
     inkscape:pageshadow="2"
     inkscape:zoom="10.275529"
     inkscape:cx="4.1568688"
     inkscape:cy="9.0930515"
     inkscape:document-units="mm"
     inkscape:current-layer="layer2"
     showgrid="true"
     fit-margin-top="0"
     fit-margin-left="0"
     fit-margin-right="0"
     fit-margin-bottom="0"
     inkscape:window-width="3440"
     inkscape:window-height="1377"
     inkscape:window-x="-8"
     inkscape:window-y="-8"
     inkscape:window-maximized="1"
     inkscape:measure-start="439.655,331.145"
     inkscape:measure-end="339.252,225.129"
     showguides="true"
     inkscape:guide-bbox="true"
     guidetolerance="35"
     inkscape:snap-perpendicular="false"
     inkscape:snap-tangential="false"
     objecttolerance="32"
     inkscape:snap-path-clip="true"
     inkscape:snap-path-mask="true"
     gridtolerance="10"
     inkscape:pagecheckerboard="false"
     borderlayer="false"
     inkscape:showpageshadow="true"
     inkscape:snap-to-guides="true"
     inkscape:snap-object-midpoints="true"
     inkscape:snap-page="true"
     inkscape:snap-bbox="true"
     inkscape:bbox-nodes="true"
     inkscape:object-nodes="false">
    <inkscape:grid
       type="xygrid"
       id="grid4633"
       units="mm"
       spacingx="0.49999999"
       spacingy="0.49999999"
       snapvisiblegridlinesonly="true"
       dotted="false"
       visible="false"
       enabled="false"
       originx="-6.778113"
       originy="-7.3234808" />
  </sodipodi:namedview>
  <metadata
     id="metadata6291">
    <rdf:RDF>
      <cc:Work
         rdf:about="">
        <dc:format>image/svg+xml</dc:format>
        <dc:type
           rdf:resource="http://purl.org/dc/dcmitype/StillImage" />
        <dc:title />
      </cc:Work>
    </rdf:RDF>
  </metadata>
  <g
     inkscape:label="Reference"
     inkscape:groupmode="layer"
     id="layer1"
     transform="translate(447.22675,-158.08723)"
     style="display:inline">
    <image
       sodipodi:absref="D:\Development\c172-sim-panel\avionics\garmin_gns_430\430.png"
       xlink:href="430.png"
       y="84.732323"
       x="-562.25653"
       id="image981"
       preserveAspectRatio="none"
       height="69"
       width="164.99881" />
    <text
       xml:space="preserve"
       style="font-style:normal;font-weight:normal;font-size:10.58333302px;line-height:125%;font-family:sans-serif;letter-spacing:0px;word-spacing:0px;fill:#000000;fill-opacity:1;stroke:none;stroke-width:0.26458332px;stroke-linecap:butt;stroke-linejoin:miter;stroke-opacity:1"
       x="-390.86044"
       y="185.38623"
       id="text853"><tspan
         sodipodi:role="line"
         id="tspan851"
         x="-390.86044"
         y="195.04173"
         style="stroke-width:0.26458332px" /></text>
  </g>
  <g
     inkscape:groupmode="layer"
     id="layer3"
     inkscape:label="D"
     style="display:none"
     transform="translate(0,-8)"
     sodipodi:insensitive="true">
    <g
       aria-label="D"
       style="font-style:normal;font-variant:normal;font-weight:500;font-stretch:normal;font-size:3.06916666px;line-height:125%;font-family:'HeldustryFTVBasic Black';-inkscape-font-specification:'HeldustryFTVBasic Black, Medium';font-variant-ligatures:normal;font-variant-caps:normal;font-variant-numeric:normal;font-feature-settings:normal;text-align:center;letter-spacing:0px;word-spacing:0px;writing-mode:lr-tb;text-anchor:middle;display:inline;fill:#000000;fill-opacity:1;stroke:none;stroke-width:0.26458332px;stroke-linecap:butt;stroke-linejoin:miter;stroke-opacity:1"
       id="text36-2">
      <path
         d="m 6.4406994,11.003068 q 0,0.29464 -0.064452,0.503343 -0.064452,0.208704 -0.1994958,0.340678 -0.1319742,0.131974 -0.3345392,0.193357 -0.1994958,0.06138 -0.4757208,0.06138 H 4.5593003 V 9.8981679 h 0.9268883 q 0.2608792,0 0.44196,0.076729 0.1810808,0.07366 0.29464,0.2179111 0.1135592,0.141182 0.165735,0.346816 0.052176,0.202565 0.052176,0.463444 z m -0.5217583,-0.0399 q 0,-0.187219 -0.030692,-0.309986 -0.027623,-0.125836 -0.085937,-0.196427 -0.058314,-0.07366 -0.1411817,-0.101282 -0.082868,-0.03069 -0.1933575,-0.03069 H 5.0779894 v 1.344295 h 0.3652309 q 0.1381125,0 0.2301875,-0.03376 0.092075,-0.03683 0.1442508,-0.119697 0.055245,-0.08287 0.076729,-0.217911 0.024553,-0.135043 0.024553,-0.334539 z"
         style="font-style:normal;font-variant:normal;font-weight:500;font-stretch:normal;font-size:3.06916666px;font-family:'HeldustryFTVBasic Black';-inkscape-font-specification:'HeldustryFTVBasic Black, Medium';font-variant-ligatures:normal;font-variant-caps:normal;font-variant-numeric:normal;font-feature-settings:normal;text-align:center;writing-mode:lr-tb;text-anchor:middle;stroke-width:0.26458332px"
         id="path865"
         inkscape:connector-curvature="0" />
    </g>
    <path
       style="display:inline;fill:#000000;fill-opacity:1;fill-rule:evenodd;stroke:none;stroke-width:0.30037382px;stroke-linecap:butt;stroke-linejoin:miter;stroke-opacity:1"
       d="m 6.9776102,10.13178 0.021701,0.61286 H 3.0985801 v 0.51072 H 6.9993102 L 6.9776091,11.86822 7.901419,11 Z"
       id="path43"
       inkscape:connector-curvature="0"
       sodipodi:nodetypes="cccccccc" />
  </g>
  <g
     transform="translate(0,-8)"
     style="display:none"
     inkscape:label="MENU"
     id="g30"
     inkscape:groupmode="layer"
     sodipodi:insensitive="true">
    <g
       aria-label="MENU"
       style="font-style:normal;font-variant:normal;font-weight:500;font-stretch:normal;font-size:3.06916666px;line-height:125%;font-family:'HeldustryFTVBasic Black';-inkscape-font-specification:'HeldustryFTVBasic Black, Medium';font-variant-ligatures:normal;font-variant-caps:normal;font-variant-numeric:normal;font-feature-settings:normal;text-align:center;letter-spacing:0px;word-spacing:0px;writing-mode:lr-tb;text-anchor:middle;display:inline;fill:#000000;fill-opacity:1;stroke:none;stroke-width:0.26458332px;stroke-linecap:butt;stroke-linejoin:miter;stroke-opacity:1"
       id="text28">
      <path
         d="M 3.3880537,12.080347 V 9.8766854 H 2.6821454 L 2.2739462,11.534035 1.8442629,9.8766854 H 1.1567695 v 2.2036616 h 0.5033434 v -1.43637 l 0.3590925,1.43637 h 0.5033433 l 0.3621617,-1.439439 v 1.439439 z"
         style="font-style:normal;font-variant:normal;font-weight:500;font-stretch:normal;font-size:3.06916666px;font-family:'HeldustryFTVBasic Black';-inkscape-font-specification:'HeldustryFTVBasic Black, Medium';font-variant-ligatures:normal;font-variant-caps:normal;font-variant-numeric:normal;font-feature-settings:normal;text-align:center;writing-mode:lr-tb;text-anchor:middle;stroke-width:0.26458332px"
         id="path874"
         inkscape:connector-curvature="0" />
      <path
         d="M 5.5317708,12.080347 H 3.7823458 V 9.8766854 H 5.5010791 V 10.3033 h -1.196975 v 0.40513 h 1.1018308 v 0.426614 H 4.3041041 v 0.512551 h 1.2276667 z"
         style="font-style:normal;font-variant:normal;font-weight:500;font-stretch:normal;font-size:3.06916666px;font-family:'HeldustryFTVBasic Black';-inkscape-font-specification:'HeldustryFTVBasic Black, Medium';font-variant-ligatures:normal;font-variant-caps:normal;font-variant-numeric:normal;font-feature-settings:normal;text-align:center;writing-mode:lr-tb;text-anchor:middle;stroke-width:0.26458332px"
         id="path876"
         inkscape:connector-curvature="0" />
      <path
         d="M 7.6378426,12.080347 V 9.8766854 H 7.1191534 V 11.208704 L 6.3150318,9.8766854 H 5.8024809 v 2.2036616 h 0.5217584 v -1.341226 l 0.7979833,1.341226 z"
         style="font-style:normal;font-variant:normal;font-weight:500;font-stretch:normal;font-size:3.06916666px;font-family:'HeldustryFTVBasic Black';-inkscape-font-specification:'HeldustryFTVBasic Black, Medium';font-variant-ligatures:normal;font-variant-caps:normal;font-variant-numeric:normal;font-feature-settings:normal;text-align:center;writing-mode:lr-tb;text-anchor:middle;stroke-width:0.26458332px"
         id="path878"
         inkscape:connector-curvature="0" />
      <path
         d="m 9.8432306,11.349885 q 0,0.208704 -0.064452,0.356024 -0.061383,0.144251 -0.1780116,0.239395 -0.1166284,0.09207 -0.2885017,0.135043 -0.1688042,0.04297 -0.3805767,0.04297 -0.239395,0 -0.4112683,-0.05218 Q 8.3516156,12.015895 8.2411256,11.914612 8.1337048,11.81333 8.081529,11.669079 8.0324223,11.524828 8.0324223,11.343747 V 9.8766854 H 8.5541806 V 11.37137 q 0,0.08287 0.015346,0.14425 0.018415,0.06138 0.064452,0.104352 0.046038,0.0399 0.1258358,0.06138 0.079798,0.01841 0.2056342,0.01841 0.2117725,0 0.2823633,-0.0798 0.07366,-0.0798 0.07366,-0.236326 V 9.8766854 h 0.5217583 z"
         style="font-style:normal;font-variant:normal;font-weight:500;font-stretch:normal;font-size:3.06916666px;font-family:'HeldustryFTVBasic Black';-inkscape-font-specification:'HeldustryFTVBasic Black, Medium';font-variant-ligatures:normal;font-variant-caps:normal;font-variant-numeric:normal;font-feature-settings:normal;text-align:center;writing-mode:lr-tb;text-anchor:middle;stroke-width:0.26458332px"
         id="path880"
         inkscape:connector-curvature="0" />
    </g>
  </g>
  <g
     inkscape:groupmode="layer"
     id="g36"
     inkscape:label="CLR"
     style="display:none"
     transform="translate(0,-8)"
     sodipodi:insensitive="true">
    <g
       aria-label="CLR"
       style="font-style:normal;font-variant:normal;font-weight:500;font-stretch:normal;font-size:3.06916666px;line-height:125%;font-family:'HeldustryFTVBasic Black';-inkscape-font-specification:'HeldustryFTVBasic Black, Medium';font-variant-ligatures:normal;font-variant-caps:normal;font-variant-numeric:normal;font-feature-settings:normal;text-align:center;letter-spacing:0px;word-spacing:0px;writing-mode:lr-tb;text-anchor:middle;display:inline;fill:#000000;fill-opacity:1;stroke:none;stroke-width:0.26458332px;stroke-linecap:butt;stroke-linejoin:miter;stroke-opacity:1"
       id="text34">
      <path
         d="m 4.5258032,11.29157 q -0.018415,0.171873 -0.076729,0.3284 -0.055245,0.153459 -0.165735,0.270087 -0.11049,0.116628 -0.2854325,0.187219 -0.1749425,0.06752 -0.4266141,0.06752 -0.2885017,0 -0.4910667,-0.07673 -0.1994958,-0.0798 -0.3253317,-0.227119 -0.1227666,-0.150389 -0.1810808,-0.3683 -0.055245,-0.21791 -0.055245,-0.497205 0,-0.25781 0.061383,-0.463444 0.061383,-0.208703 0.1902884,-0.352954 0.128905,-0.14732 0.3253316,-0.2240491 0.1994959,-0.079798 0.4726517,-0.079798 0.276225,0 0.4511675,0.070591 0.1749425,0.067522 0.2792942,0.1780121 0.1043516,0.11049 0.1503891,0.251672 0.046037,0.141181 0.064452,0.282363 H 4.0193907 q -0.018415,-0.07366 -0.039899,-0.141182 -0.021484,-0.06752 -0.067522,-0.116629 -0.042968,-0.04911 -0.1196975,-0.07673 -0.07366,-0.03069 -0.1994959,-0.03069 -0.1534583,0 -0.25781,0.0399 -0.1043516,0.0399 -0.1688041,0.128905 -0.064453,0.08901 -0.092075,0.236326 -0.027622,0.144252 -0.027622,0.356024 0,0.214841 0.03683,0.349885 0.039899,0.131974 0.1074208,0.208703 0.070591,0.07366 0.1688042,0.101282 0.1012825,0.02762 0.2240491,0.02762 0.1258359,0 0.1994959,-0.03069 0.07366,-0.03069 0.1166283,-0.08594 0.042968,-0.05832 0.067522,-0.135044 0.024553,-0.0798 0.049107,-0.178011 z"
         style="font-style:normal;font-variant:normal;font-weight:500;font-stretch:normal;font-size:3.06916666px;font-family:'HeldustryFTVBasic Black';-inkscape-font-specification:'HeldustryFTVBasic Black, Medium';font-variant-ligatures:normal;font-variant-caps:normal;font-variant-numeric:normal;font-feature-settings:normal;text-align:center;writing-mode:lr-tb;text-anchor:middle;stroke-width:0.26458332px"
         id="path883"
         inkscape:connector-curvature="0" />
      <path
         d="M 6.3606852,12.10183 H 4.7954102 V 9.8981679 h 0.5217583 v 1.7709091 h 1.0435167 z"
         style="font-style:normal;font-variant:normal;font-weight:500;font-stretch:normal;font-size:3.06916666px;font-family:'HeldustryFTVBasic Black';-inkscape-font-specification:'HeldustryFTVBasic Black, Medium';font-variant-ligatures:normal;font-variant-caps:normal;font-variant-numeric:normal;font-feature-settings:normal;text-align:center;writing-mode:lr-tb;text-anchor:middle;stroke-width:0.26458332px"
         id="path885"
         inkscape:connector-curvature="0" />
      <path
         d="M 8.4814316,12.10183 H 7.9381891 q -0.049107,-0.07366 -0.067522,-0.171874 -0.015346,-0.101282 -0.021484,-0.205634 -0.00614,-0.104352 -0.015346,-0.205634 -0.00921,-0.101283 -0.042968,-0.178012 -0.015346,-0.03683 -0.055245,-0.05831 -0.03683,-0.02148 -0.1166284,-0.02148 H 7.1095141 V 12.10183 H 6.5877557 V 9.8981679 h 1.0956925 q 0.1196975,0 0.2516717,0.021484 0.1350433,0.018415 0.2455333,0.085937 0.1135592,0.06445 0.18415,0.193357 0.07366,0.128905 0.07366,0.346816 0,0.202565 -0.089006,0.322263 -0.085937,0.119697 -0.2240492,0.162665 0.061383,0.02455 0.1012825,0.0798 0.042968,0.05525 0.067522,0.122766 0.024553,0.06752 0.03683,0.138113 0.012277,0.07059 0.018415,0.128905 0.00921,0.09821 0.012277,0.171873 0.00614,0.07366 0.015346,0.141182 0.012277,0.06752 0.033761,0.135043 0.024553,0.06752 0.070591,0.153459 z M 7.9074974,10.573385 q 0,-0.07366 -0.012277,-0.119698 -0.00921,-0.04911 -0.03683,-0.07673 -0.027623,-0.03069 -0.076729,-0.0399 -0.049107,-0.01228 -0.1227667,-0.01228 H 7.1095141 v 0.521758 h 0.5064125 q 0.098213,0 0.1565275,-0.01534 0.058314,-0.01841 0.085937,-0.05218 0.030692,-0.03376 0.039899,-0.08287 0.00921,-0.05218 0.00921,-0.122766 z"
         style="font-style:normal;font-variant:normal;font-weight:500;font-stretch:normal;font-size:3.06916666px;font-family:'HeldustryFTVBasic Black';-inkscape-font-specification:'HeldustryFTVBasic Black, Medium';font-variant-ligatures:normal;font-variant-caps:normal;font-variant-numeric:normal;font-feature-settings:normal;text-align:center;writing-mode:lr-tb;text-anchor:middle;stroke-width:0.26458332px"
         id="path887"
         inkscape:connector-curvature="0" />
    </g>
  </g>
  <g
     transform="translate(0,-8)"
     style="display:inline"
     inkscape:label="ENT"
     id="g42"
     inkscape:groupmode="layer"
     sodipodi:insensitive="true">
    <g
       aria-label="ENT"
       style="font-style:normal;font-variant:normal;font-weight:500;font-stretch:normal;font-size:3.06916666px;line-height:125%;font-family:'HeldustryFTVBasic Black';-inkscape-font-specification:'HeldustryFTVBasic Black, Medium';font-variant-ligatures:normal;font-variant-caps:normal;font-variant-numeric:normal;font-feature-settings:normal;text-align:center;letter-spacing:0px;word-spacing:0px;writing-mode:lr-tb;text-anchor:middle;display:inline;fill:#000000;fill-opacity:1;stroke:none;stroke-width:0.26458332px;stroke-linecap:butt;stroke-linejoin:miter;stroke-opacity:1"
       id="text40">
      <path
         d="M 4.340215,12.10183 H 2.59079 V 9.8981679 h 1.7187333 v 0.4266141 h -1.196975 v 0.40513 h 1.1018309 v 0.426614 H 3.1125483 v 0.512551 H 4.340215 Z"
         style="font-style:normal;font-variant:normal;font-weight:500;font-stretch:normal;font-size:3.06916666px;font-family:'HeldustryFTVBasic Black';-inkscape-font-specification:'HeldustryFTVBasic Black, Medium';font-variant-ligatures:normal;font-variant-caps:normal;font-variant-numeric:normal;font-feature-settings:normal;text-align:center;writing-mode:lr-tb;text-anchor:middle;stroke-width:0.26458332px"
         id="path890"
         inkscape:connector-curvature="0" />
      <path
         d="M 6.4462868,12.10183 V 9.8981679 H 5.9275977 V 11.230186 L 5.123476,9.8981679 H 4.6109252 V 12.10183 h 0.5217583 v -1.341226 l 0.7979833,1.341226 z"
         style="font-style:normal;font-variant:normal;font-weight:500;font-stretch:normal;font-size:3.06916666px;font-family:'HeldustryFTVBasic Black';-inkscape-font-specification:'HeldustryFTVBasic Black, Medium';font-variant-ligatures:normal;font-variant-caps:normal;font-variant-numeric:normal;font-feature-settings:normal;text-align:center;writing-mode:lr-tb;text-anchor:middle;stroke-width:0.26458332px"
         id="path892"
         inkscape:connector-curvature="0" />
      <path
         d="M 8.4092105,10.324782 H 7.7800313 V 12.10183 H 7.258273 V 10.324782 H 6.6290938 V 9.8981679 h 1.7801167 z"
         style="font-style:normal;font-variant:normal;font-weight:500;font-stretch:normal;font-size:3.06916666px;font-family:'HeldustryFTVBasic Black';-inkscape-font-specification:'HeldustryFTVBasic Black, Medium';font-variant-ligatures:normal;font-variant-caps:normal;font-variant-numeric:normal;font-feature-settings:normal;text-align:center;writing-mode:lr-tb;text-anchor:middle;stroke-width:0.26458332px"
         id="path894"
         inkscape:connector-curvature="0" />
    </g>
  </g>
  <g
     inkscape:groupmode="layer"
     id="layer2"
     inkscape:label="border">
    <path
       id="Sketch036_w0014-9"
       d="m 9.6007697,0.19880092 a 54.346165,50.61698 0 0 0 -8.2088999,0 1.444959,1.3458072 0 0 0 -1.33572909,1.32625828 136.03603,126.70136 0 0 0 0,2.9572422 1.444959,1.3458072 0 0 0 1.33572909,1.3262582 54.346165,50.61698 0 0 0 8.2088999,0 1.444959,1.3458072 0 0 0 1.3357293,-1.3262582 136.03603,126.70136 0 0 0 0,-2.9572422 1.444959,1.3458072 0 0 0 -1.3357293,-1.32625828"
       style="display:inline;fill:none;fill-rule:evenodd;stroke:#fb0000;stroke-width:0.0937538;stroke-miterlimit:4;stroke-dasharray:none;stroke-opacity:1"
       inkscape:connector-curvature="0" />
  </g>
  <g
     sodipodi:insensitive="true"
     inkscape:groupmode="layer"
     id="g872"
     inkscape:label="Font Reference"
     style="display:none"
     transform="translate(0,-8)">
    <text
       xml:space="preserve"
       style="font-style:normal;font-variant:normal;font-weight:500;font-stretch:normal;font-size:3.06916666px;line-height:125%;font-family:'HeldustryFTVBasic Black';-inkscape-font-specification:'HeldustryFTVBasic Black, Medium';font-variant-ligatures:normal;font-variant-caps:normal;font-variant-numeric:normal;font-feature-settings:normal;text-align:center;letter-spacing:0px;word-spacing:0px;writing-mode:lr-tb;text-anchor:middle;display:inline;fill:#000000;fill-opacity:1;stroke:none;stroke-width:0.26458332px;stroke-linecap:butt;stroke-linejoin:miter;stroke-opacity:1"
       x="5.3940182"
       y="12.10183"
       id="text870"><tspan
         sodipodi:role="line"
         x="5.3940182"
         y="12.10183"
         style="font-style:normal;font-variant:normal;font-weight:500;font-stretch:normal;font-size:3.06916666px;font-family:'HeldustryFTVBasic Black';-inkscape-font-specification:'HeldustryFTVBasic Black, Medium';font-variant-ligatures:normal;font-variant-caps:normal;font-variant-numeric:normal;font-feature-settings:normal;text-align:center;writing-mode:lr-tb;text-anchor:middle;stroke-width:0.26458332px"
         id="tspan868">ENT</tspan></text>
  </g>
</svg>
