<?xml version="1.0" encoding="UTF-8" standalone="no"?>
<!-- Created with Inkscape (http://www.inkscape.org/) -->

<svg
   xmlns:dc="http://purl.org/dc/elements/1.1/"
   xmlns:cc="http://creativecommons.org/ns#"
   xmlns:rdf="http://www.w3.org/1999/02/22-rdf-syntax-ns#"
   xmlns:svg="http://www.w3.org/2000/svg"
   xmlns="http://www.w3.org/2000/svg"
   xmlns:xlink="http://www.w3.org/1999/xlink"
   xmlns:sodipodi="http://sodipodi.sourceforge.net/DTD/sodipodi-0.dtd"
   xmlns:inkscape="http://www.inkscape.org/namespaces/inkscape"
   width="6.8000002mm"
   height="11mm"
   viewBox="0 0 6.8000002 11"
   version="1.1"
   id="svg6294"
   inkscape:version="0.92.2 (5c3e80d, 2017-08-06)"
   sodipodi:docname="button_medium_vertical_engrave.svg">
  <defs
     id="defs6288" />
  <sodipodi:namedview
     id="base"
     pagecolor="#ffffff"
     bordercolor="#666666"
     borderopacity="1.0"
     inkscape:pageopacity="0.0"
     inkscape:pageshadow="2"
     inkscape:zoom="15.586364"
     inkscape:cx="12.850394"
     inkscape:cy="20.787402"
     inkscape:document-units="mm"
     inkscape:current-layer="layer2"
     showgrid="true"
     fit-margin-top="0"
     fit-margin-left="0"
     fit-margin-right="0"
     fit-margin-bottom="0"
     inkscape:window-width="1280"
     inkscape:window-height="800"
     inkscape:window-x="15"
     inkscape:window-y="5"
     inkscape:window-maximized="0"
     inkscape:measure-start="439.655,331.145"
     inkscape:measure-end="339.252,225.129"
     showguides="true"
     inkscape:guide-bbox="true"
     guidetolerance="35"
     inkscape:snap-perpendicular="false"
     inkscape:snap-tangential="false"
     objecttolerance="32"
     inkscape:snap-path-clip="true"
     inkscape:snap-path-mask="true"
     gridtolerance="10"
     inkscape:pagecheckerboard="false"
     borderlayer="false"
     inkscape:showpageshadow="true"
     inkscape:snap-to-guides="true"
     inkscape:snap-object-midpoints="true"
     inkscape:snap-page="true"
     inkscape:snap-bbox="true"
     inkscape:bbox-nodes="true"
     inkscape:snap-nodes="false">
    <inkscape:grid
       type="xygrid"
       id="grid4633"
       units="mm"
       spacingx="0.49999999"
       spacingy="0.49999999"
       snapvisiblegridlinesonly="true"
       dotted="false"
       visible="false"
       enabled="false"
       originx="-6.778113"
       originy="-7.3234808" />
  </sodipodi:namedview>
  <metadata
     id="metadata6291">
    <rdf:RDF>
      <cc:Work
         rdf:about="">
        <dc:format>image/svg+xml</dc:format>
        <dc:type
           rdf:resource="http://purl.org/dc/dcmitype/StillImage" />
        <dc:title></dc:title>
      </cc:Work>
    </rdf:RDF>
  </metadata>
  <g
     inkscape:label="Reference"
     inkscape:groupmode="layer"
     id="layer1"
     transform="translate(447.22675,-153.08723)"
     style="display:inline">
    <image
       sodipodi:absref="D:\Development\c172-sim-panel\components\avionics\garmin_gns_430\430.png"
       xlink:href="file:///D:/Development/c172-sim-panel/components/avionics/garmin_gns_430/430.png"
       y="170.6071"
       x="-473.19025"
       id="image981"
       preserveAspectRatio="none"
       height="69"
       width="164.99881" />
    <text
       xml:space="preserve"
       style="font-style:normal;font-weight:normal;font-size:10.58333302px;line-height:125%;font-family:sans-serif;letter-spacing:0px;word-spacing:0px;fill:#000000;fill-opacity:1;stroke:none;stroke-width:0.26458332px;stroke-linecap:butt;stroke-linejoin:miter;stroke-opacity:1"
       x="-390.86044"
       y="185.38623"
       id="text853"><tspan
         sodipodi:role="line"
         id="tspan851"
         x="-390.86044"
         y="195.04173"
         style="stroke-width:0.26458332px" /></text>
  </g>
  <g
     inkscape:groupmode="layer"
     id="g872"
     inkscape:label="Font Reference"
     style="display:none"
     transform="translate(0,-3)">
    <text
       xml:space="preserve"
       style="font-style:normal;font-variant:normal;font-weight:500;font-stretch:normal;font-size:3.06916666px;line-height:125%;font-family:'HeldustryFTVBasic Black';-inkscape-font-specification:'HeldustryFTVBasic Black, Medium';font-variant-ligatures:normal;font-variant-caps:normal;font-variant-numeric:normal;font-feature-settings:normal;text-align:center;letter-spacing:0px;word-spacing:0px;writing-mode:lr-tb;text-anchor:middle;display:inline;fill:#000000;fill-opacity:1;stroke:none;stroke-width:0.26458332px;stroke-linecap:butt;stroke-linejoin:miter;stroke-opacity:1"
       x="5.3940182"
       y="12.10183"
       id="text870"><tspan
         sodipodi:role="line"
         x="5.3940182"
         y="12.10183"
         style="font-style:normal;font-variant:normal;font-weight:500;font-stretch:normal;font-size:3.06916666px;font-family:'HeldustryFTVBasic Black';-inkscape-font-specification:'HeldustryFTVBasic Black, Medium';font-variant-ligatures:normal;font-variant-caps:normal;font-variant-numeric:normal;font-feature-settings:normal;text-align:center;writing-mode:lr-tb;text-anchor:middle;stroke-width:0.26458332px"
         id="tspan868">ENT</tspan></text>
  </g>
  <g
     transform="translate(0,-3)"
     style="display:inline"
     inkscape:label="C"
     id="g849"
     inkscape:groupmode="layer">
    <path
       style="display:inline;fill:#000000;fill-opacity:1;fill-rule:evenodd;stroke:none;stroke-width:0.26458332px;stroke-linecap:butt;stroke-linejoin:miter;stroke-opacity:1"
       d="m 2.5401,10.76963 h 0.62425 l 0.008,-0.7028 -0.008,-0.7028 H 2.5401 L 3.39999,7.54502 4.25988,9.36403 H 3.63563 l -0.008,0.7028 0.008,0.7028 h 0.62425 l -0.85989,1.81901 z"
       id="path882-4"
       inkscape:connector-curvature="0"
       sodipodi:nodetypes="ccccccccccccc" />
    <g
       id="text847"
       style="font-style:normal;font-variant:normal;font-weight:500;font-stretch:normal;font-size:3.47372842px;line-height:125%;font-family:'HeldustryFTVBasic Black';-inkscape-font-specification:'HeldustryFTVBasic Black, Medium';font-variant-ligatures:normal;font-variant-caps:normal;font-variant-numeric:normal;font-feature-settings:normal;text-align:center;letter-spacing:0px;word-spacing:0px;writing-mode:lr-tb;text-anchor:middle;display:inline;fill:#000000;fill-opacity:1;stroke:none;stroke-width:0.29945934px;stroke-linecap:butt;stroke-linejoin:miter;stroke-opacity:1"
       aria-label="C"
       transform="translate(0.14405169,-0.199704)">
      <path
         inkscape:connector-curvature="0"
         id="path840"
         style="font-style:normal;font-variant:normal;font-weight:500;font-stretch:normal;font-size:3.47372842px;font-family:'HeldustryFTVBasic Black';-inkscape-font-specification:'HeldustryFTVBasic Black, Medium';font-variant-ligatures:normal;font-variant-caps:normal;font-variant-numeric:normal;font-feature-settings:normal;text-align:center;writing-mode:lr-tb;text-anchor:middle;stroke-width:0.29945934px"
         d="M 4.3918576,6.2367729 Q 4.3710152,6.4313017 4.3050144,6.6084618 4.2424873,6.7821483 4.1174331,6.9141499 3.9923788,7.0461516 3.7943763,7.1260474 q -0.1980025,0.076422 -0.4828482,0.076422 -0.3265305,0 -0.5557966,-0.086843 Q 2.5299392,7.0253093 2.3875163,6.8585703 2.2485672,6.6883576 2.1825663,6.4417229 2.1200392,6.1950882 2.1200392,5.8789789 q 0,-0.2917932 0.069475,-0.524533 Q 2.2589884,5.1182324 2.4048849,4.9549671 2.5507815,4.7882282 2.7731002,4.7013849 2.9988925,4.611068 3.3080543,4.611068 q 0.3126356,0 0.5106381,0.079896 0.1980025,0.076422 0.3161093,0.2014762 0.1181068,0.1250542 0.1702127,0.2848457 0.052106,0.1597915 0.072948,0.319583 h -0.55927 Q 3.79785,5.4134993 3.7735339,5.3370772 3.7492178,5.2606552 3.6971119,5.2050756 3.6484797,5.1494959 3.5616365,5.1182324 3.478267,5.0834951 3.3358442,5.0834951 q -0.1736865,0 -0.2917932,0.045158 -0.1181068,0.045158 -0.1910551,0.1458966 -0.072948,0.1007382 -0.1042118,0.2674771 -0.031264,0.1632653 -0.031264,0.4029525 0,0.243161 0.041685,0.3960051 0.045159,0.1493703 0.1215805,0.2362135 0.079896,0.083369 0.1910551,0.114633 0.114633,0.031264 0.2535822,0.031264 0.1424228,0 0.2257923,-0.034737 0.083369,-0.034737 0.1320017,-0.097264 0.048632,-0.066001 0.076422,-0.1528441 0.02779,-0.090317 0.05558,-0.2014762 z" />
    </g>
  </g>
  <g
     inkscape:groupmode="layer"
     id="g835"
     inkscape:label="V"
     style="display:none"
     transform="translate(0,-3)">
    <g
       transform="translate(0.14405169,-0.199704)"
       id="g833">
      <path
         transform="translate(447.22674,-150.08723)"
         style="display:inline;fill:#000000;fill-opacity:1;fill-rule:evenodd;stroke:none;stroke-width:0.26458332px;stroke-linecap:butt;stroke-linejoin:miter;stroke-opacity:1"
         d="m -444.83069,161.05656 h 0.62425 l 0.008,-0.7028 -0.008,-0.7028 h -0.62425 l 0.85989,-1.81901 0.85989,1.81901 h -0.62425 l -0.008,0.7028 0.008,0.7028 h 0.62425 l -0.85989,1.81901 z"
         id="path827"
         inkscape:connector-curvature="0"
         sodipodi:nodetypes="ccccccccccccc" />
    </g>
    <g
       aria-label="V"
       style="font-style:normal;font-variant:normal;font-weight:500;font-stretch:normal;font-size:3.06916666px;line-height:125%;font-family:'HeldustryFTVBasic Black';-inkscape-font-specification:'HeldustryFTVBasic Black, Medium';font-variant-ligatures:normal;font-variant-caps:normal;font-variant-numeric:normal;font-feature-settings:normal;text-align:center;letter-spacing:0px;word-spacing:0px;writing-mode:lr-tb;text-anchor:middle;display:inline;fill:#000000;fill-opacity:1;stroke:none;stroke-width:0.26458332px;stroke-linecap:butt;stroke-linejoin:miter;stroke-opacity:1"
       id="text870-6"
       transform="matrix(1.1535905,0,0,1.1535905,-0.44585872,-0.9813558)">
      <path
         d="M 4.3266917,4.6960848 3.5594001,6.8997464 H 3.0775409 l -0.7366,-2.2036616 H 2.8964601 L 3.3261434,6.1539389 3.7742417,4.6960848 Z"
         style="font-style:normal;font-variant:normal;font-weight:500;font-stretch:normal;font-size:3.06916666px;font-family:'HeldustryFTVBasic Black';-inkscape-font-specification:'HeldustryFTVBasic Black, Medium';font-variant-ligatures:normal;font-variant-caps:normal;font-variant-numeric:normal;font-feature-settings:normal;text-align:center;writing-mode:lr-tb;text-anchor:middle;stroke-width:0.26458332px"
         id="path2065"
         inkscape:connector-curvature="0" />
    </g>
  </g>
  <g
     inkscape:groupmode="layer"
     id="layer2"
     inkscape:label="border">
    <path
       inkscape:connector-curvature="0"
       style="fill:none;fill-rule:evenodd;stroke:#fd0000;stroke-width:0.1;stroke-miterlimit:4;stroke-dasharray:none;stroke-opacity:1"
       d="m 5.2558029,0.0636828 a 110.63023,116.85135 0 0 0 -3.71164,0 1.3877093,1.465745 0 0 0 -1.3609868,1.3623001 54.764078,57.84365 0 0 0 0,8.148037 1.3877093,1.465745 0 0 0 1.3609868,1.3623001 110.63023,116.85135 0 0 0 3.71164,0 1.3877093,1.465745 0 0 0 1.3609867,-1.3623001 54.764078,57.84365 0 0 0 0,-8.148037 1.3877093,1.465745 0 0 0 -1.3609867,-1.3623001"
       id="Sketch036_w0017" />
  </g>
</svg>
