<?xml version="1.0" encoding="UTF-8" standalone="no"?>
<svg
   xmlns:dc="http://purl.org/dc/elements/1.1/"
   xmlns:cc="http://creativecommons.org/ns#"
   xmlns:rdf="http://www.w3.org/1999/02/22-rdf-syntax-ns#"
   xmlns:svg="http://www.w3.org/2000/svg"
   xmlns="http://www.w3.org/2000/svg"
   xmlns:sodipodi="http://sodipodi.sourceforge.net/DTD/sodipodi-0.dtd"
   xmlns:inkscape="http://www.inkscape.org/namespaces/inkscape"
   width="60.0mm"
   height="120.0mm"
   viewBox="-138.000000 -60.000000 60.000000 120.000000"
   version="1.1"
   id="svg14"
   sodipodi:docname="frame_mount_left.svg"
   inkscape:version="0.92.2 (5c3e80d, 2017-08-06)">
  <metadata
     id="metadata20">
    <rdf:RDF>
      <cc:Work
         rdf:about="">
        <dc:format>image/svg+xml</dc:format>
        <dc:type
           rdf:resource="http://purl.org/dc/dcmitype/StillImage" />
      </cc:Work>
    </rdf:RDF>
  </metadata>
  <defs
     id="defs18" />
  <sodipodi:namedview
     pagecolor="#ffffff"
     bordercolor="#666666"
     borderopacity="1"
     objecttolerance="10"
     gridtolerance="10"
     guidetolerance="10"
     inkscape:pageopacity="0"
     inkscape:pageshadow="2"
     inkscape:window-width="1239"
     inkscape:window-height="1068"
     id="namedview16"
     showgrid="false"
     inkscape:zoom="4.1627778"
     inkscape:cx="170.63119"
     inkscape:cy="116.52276"
     inkscape:window-x="480"
     inkscape:window-y="253"
     inkscape:window-maximized="0"
     inkscape:current-layer="svg14" />
  <path
     inkscape:connector-curvature="0"
     style="fill:none;fill-rule:evenodd;stroke:#ff0000;stroke-width:0.1;stroke-miterlimit:4;stroke-dasharray:none;stroke-opacity:1"
     d="m -98,-2.8 h 20 V -60 h -58.5 a 1.5,1.5 0 0 0 -1.5,1.5 V -43 a 1.5,1.5 0 0 0 1.5,1.5 H -98 a 1.5,1.5 0 1 1 0,3 h -38.5 a 1.5,1.5 0 0 0 -1.5,1.5 v 74 a 1.5,1.5 0 0 0 1.5,1.5 h 23.49999 a 1.5,1.5 0 1 1 0,3 H -136.5 A 1.5,1.5 0 0 0 -138,43 v 15.5 a 1.5,1.5 0 0 0 1.5,1.5 H -78 V 38.1 H -98 V -2.8"
     id="Clone2D_w0000" />
  <circle
     id="circle3"
     style="fill:none;stroke:#ff0000;stroke-width:0.1;stroke-miterlimit:4;stroke-dasharray:none;stroke-opacity:1"
     r="1.5"
     cy="27"
     cx="-96"
     transform="scale(1,-1)" />
  <circle
     id="circle5"
     style="fill:none;stroke:#ff0000;stroke-width:0.1;stroke-miterlimit:4;stroke-dasharray:none;stroke-opacity:1"
     r="1.5"
     cy="-53"
     cx="-96"
     transform="scale(1,-1)" />
  <circle
     id="circle7"
     style="fill:none;stroke:#ff0000;stroke-width:0.1;stroke-miterlimit:4;stroke-dasharray:none;stroke-opacity:1"
     r="1.5"
     cy="-10.5"
     cx="-128"
     transform="scale(1,-1)" />
  <circle
     id="circle9"
     style="fill:none;stroke:#ff0000;stroke-width:0.1;stroke-miterlimit:4;stroke-dasharray:none;stroke-opacity:1"
     r="1.5"
     cy="-10.5"
     cx="-108"
     transform="scale(1,-1)" />
</svg>
