<?xml version="1.0" encoding="UTF-8" standalone="no"?>
<svg
   xmlns:dc="http://purl.org/dc/elements/1.1/"
   xmlns:cc="http://creativecommons.org/ns#"
   xmlns:rdf="http://www.w3.org/1999/02/22-rdf-syntax-ns#"
   xmlns:svg="http://www.w3.org/2000/svg"
   xmlns="http://www.w3.org/2000/svg"
   xmlns:sodipodi="http://sodipodi.sourceforge.net/DTD/sodipodi-0.dtd"
   xmlns:inkscape="http://www.inkscape.org/namespaces/inkscape"
   width="156.0mm"
   height="42.0mm"
   viewBox="-78.000000 -21.000000 156.000000 42.000000"
   version="1.1"
   id="svg882"
   sodipodi:docname="spacer.svg"
   inkscape:version="0.92.2 (5c3e80d, 2017-08-06)">
  <metadata
     id="metadata888">
    <rdf:RDF>
      <cc:Work
         rdf:about="">
        <dc:format>image/svg+xml</dc:format>
        <dc:type
           rdf:resource="http://purl.org/dc/dcmitype/StillImage" />
      </cc:Work>
    </rdf:RDF>
  </metadata>
  <defs
     id="defs886" />
  <sodipodi:namedview
     pagecolor="#ffffff"
     bordercolor="#666666"
     borderopacity="1"
     objecttolerance="10"
     gridtolerance="10"
     guidetolerance="10"
     inkscape:pageopacity="0"
     inkscape:pageshadow="2"
     inkscape:window-width="1953"
     inkscape:window-height="915"
     id="namedview884"
     showgrid="false"
     inkscape:zoom="2.0420406"
     inkscape:cx="345.60847"
     inkscape:cy="57.4781"
     inkscape:window-x="145"
     inkscape:window-y="307"
     inkscape:window-maximized="0"
     inkscape:current-layer="svg882" />
  <path
     inkscape:connector-curvature="0"
     style="fill:none;fill-rule:evenodd;stroke:#ff0000;stroke-width:0.1;stroke-miterlimit:4;stroke-dasharray:none;stroke-opacity:1"
     d="M -78,-21 H 78 V 21 H -78 v -42"
     id="Sketch050_w0000" />
  <path
     inkscape:connector-curvature="0"
     style="fill:none;fill-rule:evenodd;stroke:#ff0000;stroke-width:0.1;stroke-miterlimit:4;stroke-dasharray:none;stroke-opacity:1"
     d="M 57,-15.965856 A 12.5,12.5 0 0 0 57,5.9658561 V 8.75 H 69 V 5.9658561 A 12.5,12.5 0 0 0 69,-15.965856 V -18.75 H 57 v 2.784144"
     id="Sketch050_w0001" />
  <path
     inkscape:connector-curvature="0"
     style="fill:none;fill-rule:evenodd;stroke:#ff0000;stroke-width:0.1;stroke-miterlimit:4;stroke-dasharray:none;stroke-opacity:1"
     d="m -77.5,14.9 v -3.8 a 1,1 0 0 1 1,-1 h 9 a 1,1 0 0 1 1,1 v 3.8 a 1,1 0 0 1 -1,1 h -9 a 1,1 0 0 1 -1,-1"
     id="Sketch050_w0002" />
  <path
     inkscape:connector-curvature="0"
     style="fill:none;fill-rule:evenodd;stroke:#ff0000;stroke-width:0.1;stroke-miterlimit:4;stroke-dasharray:none;stroke-opacity:1"
     d="m -62.4,14.9 v -3.8 a 1,1 0 0 1 1,-1 h 9 a 1,1 0 0 1 1,1 v 3.8 a 1,1 0 0 1 -1,1 h -9 a 1,1 0 0 1 -1,-1"
     id="Sketch050_w0003" />
  <path
     inkscape:connector-curvature="0"
     style="fill:none;fill-rule:evenodd;stroke:#ff0000;stroke-width:0.1;stroke-miterlimit:4;stroke-dasharray:none;stroke-opacity:1"
     d="m -47.3,14.9 v -3.8 a 1,1 0 0 1 1,-1 h 9 a 1,1 0 0 1 1,1 v 3.8 a 1,1 0 0 1 -1,1 h -9 a 1,1 0 0 1 -1,-1"
     id="Sketch050_w0004" />
  <path
     inkscape:connector-curvature="0"
     style="fill:none;fill-rule:evenodd;stroke:#ff0000;stroke-width:0.1;stroke-miterlimit:4;stroke-dasharray:none;stroke-opacity:1"
     d="m -32.2,14.9 v -3.8 a 1,1 0 0 1 1,-1 h 9 a 1,1 0 0 1 1,1 v 3.8 a 1,1 0 0 1 -1,1 h -9 a 1,1 0 0 1 -1,-1"
     id="Sketch050_w0005" />
  <path
     inkscape:connector-curvature="0"
     style="fill:none;fill-rule:evenodd;stroke:#ff0000;stroke-width:0.1;stroke-miterlimit:4;stroke-dasharray:none;stroke-opacity:1"
     d="m -17.1,14.9 v -3.8 a 1,1 0 0 1 1,-1 h 9 a 1,1 0 0 1 1,1 v 3.8 a 1,1 0 0 1 -1,1 h -9 a 1,1 0 0 1 -1,-1"
     id="Sketch050_w0006" />
  <path
     inkscape:connector-curvature="0"
     style="fill:none;fill-rule:evenodd;stroke:#ff0000;stroke-width:0.1;stroke-miterlimit:4;stroke-dasharray:none;stroke-opacity:1"
     d="m -2,14.9 v -3.8 a 1,1 0 0 1 1,-1 h 9 a 1,1 0 0 1 1,1 v 3.8 a 1,1 0 0 1 -1,1 h -9 a 1,1 0 0 1 -1,-1"
     id="Sketch050_w0007" />
  <path
     inkscape:connector-curvature="0"
     style="fill:none;fill-rule:evenodd;stroke:#ff0000;stroke-width:0.1;stroke-miterlimit:4;stroke-dasharray:none;stroke-opacity:1"
     d="m 13.1,14.9 v -3.8 a 1,1 0 0 1 1,-1 h 9 a 1,1 0 0 1 1,1 v 3.8 a 1,1 0 0 1 -1,1 h -9 a 1,1 0 0 1 -1,-1"
     id="Sketch050_w0008" />
  <path
     inkscape:connector-curvature="0"
     style="fill:none;fill-rule:evenodd;stroke:#ff0000;stroke-width:0.1;stroke-miterlimit:4;stroke-dasharray:none;stroke-opacity:1"
     d="m 28.2,14.9 v -3.8 a 1,1 0 0 1 1,-1 h 9 a 1,1 0 0 1 1,1 v 3.8 a 1,1 0 0 1 -1,1 h -9 a 1,1 0 0 1 -1,-1"
     id="Sketch050_w0009" />
  <path
     inkscape:connector-curvature="0"
     style="fill:none;fill-rule:evenodd;stroke:#ff0000;stroke-width:0.1;stroke-miterlimit:4;stroke-dasharray:none;stroke-opacity:1"
     d="m 47.5,14.9 v -3.8 a 1,1 0 0 1 1,-1 h 9 a 1,1 0 0 1 1,1 v 3.8 a 1,1 0 0 1 -1,1 h -9 a 1,1 0 0 1 -1,-1"
     id="Sketch050_w0010" />
  <path
     inkscape:connector-curvature="0"
     style="fill:none;fill-rule:evenodd;stroke:#ff0000;stroke-width:0.1;stroke-miterlimit:4;stroke-dasharray:none;stroke-opacity:1"
     d="m 66.8,14.9 v -3.8 a 1,1 0 0 1 1,-1 h 9 a 1,1 0 0 1 1,1 v 3.8 a 1,1 0 0 1 -1,1 h -9 a 1,1 0 0 1 -1,-1"
     id="Sketch050_w0011" />
  <path
     inkscape:connector-curvature="0"
     style="fill:none;fill-rule:evenodd;stroke:#ff0000;stroke-width:0.1;stroke-miterlimit:4;stroke-dasharray:none;stroke-opacity:1"
     d="M -77,-7.2 V -11 a 1,1 0 0 1 1,-1 h 9 a 1,1 0 0 1 1,1 v 3.8 a 1,1 0 0 1 -1,1 h -9 a 1,1 0 0 1 -1,-1"
     id="Sketch050_w0012" />
  <path
     inkscape:connector-curvature="0"
     style="fill:none;fill-rule:evenodd;stroke:#ff0000;stroke-width:0.1;stroke-miterlimit:4;stroke-dasharray:none;stroke-opacity:1"
     d="m -40.35,-13 h 60.7 V 1 h -60.7 v -14"
     id="Sketch050_w0013" />
  <circle
     id="circle863"
     style="fill:none;stroke:#ff0000;stroke-width:0.1;stroke-miterlimit:4;stroke-dasharray:none;stroke-opacity:1"
     r="1.3"
     cy="10.5"
     cx="26.4"
     transform="scale(1,-1)" />
  <circle
     id="circle865"
     style="fill:none;stroke:#ff0000;stroke-width:0.1;stroke-miterlimit:4;stroke-dasharray:none;stroke-opacity:1"
     r="1.3"
     cy="1.5"
     cx="26.4"
     transform="scale(1,-1)" />
  <circle
     id="circle867"
     style="fill:none;stroke:#ff0000;stroke-width:0.1;stroke-miterlimit:4;stroke-dasharray:none;stroke-opacity:1"
     r="1.3"
     cy="10.5"
     cx="-50.099998"
     transform="scale(1,-1)" />
  <circle
     id="circle869"
     style="fill:none;stroke:#ff0000;stroke-width:0.1;stroke-miterlimit:4;stroke-dasharray:none;stroke-opacity:1"
     r="1.3"
     cy="1.5"
     cx="-50.099998"
     transform="scale(1,-1)" />
  <circle
     id="circle871"
     style="fill:none;stroke:#ff0000;stroke-width:0.1;stroke-miterlimit:4;stroke-dasharray:none;stroke-opacity:1"
     r="1.85"
     cy="16"
     cx="-64.400002"
     transform="scale(1,-1)" />
  <circle
     id="circle873"
     style="fill:none;stroke:#ff0000;stroke-width:0.1;stroke-miterlimit:4;stroke-dasharray:none;stroke-opacity:1"
     r="1.85"
     cy="16"
     cx="43.5"
     transform="scale(1,-1)" />
  <circle
     id="circle875"
     style="fill:none;stroke:#ff0000;stroke-width:0.1;stroke-miterlimit:4;stroke-dasharray:none;stroke-opacity:1"
     r="1.85"
     cy="-13"
     cx="43.5"
     transform="scale(1,-1)" />
  <circle
     id="circle877"
     style="fill:none;stroke:#ff0000;stroke-width:0.1;stroke-miterlimit:4;stroke-dasharray:none;stroke-opacity:1"
     r="1.85"
     cy="-13"
     cx="-64.400002"
     transform="scale(1,-1)" />
  <path
     inkscape:connector-curvature="0"
     style="fill:none;fill-rule:evenodd;stroke:#ff0000;stroke-width:0.09999999;stroke-miterlimit:4;stroke-dasharray:none;stroke-opacity:1"
     d="m -44.599999,-11.9 a 1.1,1.1 0 0 0 -2.2,0 v 11.79999962 a 1.1,1.1 0 0 0 2.2,0 V -11.9"
     id="Sketch050_w0022" />
</svg>
