<?xml version="1.0" encoding="UTF-8" standalone="no"?>
<svg
   xmlns:dc="http://purl.org/dc/elements/1.1/"
   xmlns:cc="http://creativecommons.org/ns#"
   xmlns:rdf="http://www.w3.org/1999/02/22-rdf-syntax-ns#"
   xmlns:svg="http://www.w3.org/2000/svg"
   xmlns="http://www.w3.org/2000/svg"
   xmlns:sodipodi="http://sodipodi.sourceforge.net/DTD/sodipodi-0.dtd"
   xmlns:inkscape="http://www.inkscape.org/namespaces/inkscape"
   width="60.0mm"
   height="42.0mm"
   viewBox="-138.000000 -21.000000 60.000000 42.000000"
   version="1.1"
   id="svg10"
   sodipodi:docname="left_side.svg"
   inkscape:version="0.92.2 (5c3e80d, 2017-08-06)">
  <metadata
     id="metadata16">
    <rdf:RDF>
      <cc:Work
         rdf:about="">
        <dc:format>image/svg+xml</dc:format>
        <dc:type
           rdf:resource="http://purl.org/dc/dcmitype/StillImage" />
      </cc:Work>
    </rdf:RDF>
  </metadata>
  <defs
     id="defs14" />
  <sodipodi:namedview
     pagecolor="#ffffff"
     bordercolor="#666666"
     borderopacity="1"
     objecttolerance="10"
     gridtolerance="10"
     guidetolerance="10"
     inkscape:pageopacity="0"
     inkscape:pageshadow="2"
     inkscape:window-width="1067"
     inkscape:window-height="674"
     id="namedview12"
     showgrid="false"
     inkscape:zoom="1.3273264"
     inkscape:cx="113.38583"
     inkscape:cy="79.370079"
     inkscape:window-x="1779"
     inkscape:window-y="175"
     inkscape:window-maximized="0"
     inkscape:current-layer="svg10" />
  <g
     id="Clone2D001"
     transform="scale(1,-1)"
     style="stroke:#ff0000;stroke-opacity:1;stroke-width:0.1;stroke-miterlimit:4;stroke-dasharray:none">
    <path
       id="Clone2D001_w0000"
       d="M -78.0 21.0 L -136.5 21.0 A 1.5 1.5 0 0 1 -138.0 19.5 L -138.0 14.0 A 1.5 1.5 0 0 1 -136.5 12.5 L -93.0 12.5 A 1.5 1.5 0 1 0 -93.0 9.5 L -136.5 9.5 A 1.5 1.5 0 0 1 -138.0 8.0 L -138.0 -7.99998960604 A 1.5 1.5 0 0 1 -136.5 -9.5 L -93.0 -9.5 A 1.5 1.5 0 1 0 -93.0 -12.5 L -136.5 -12.5 A 1.5 1.5 0 0 1 -138.0 -14.0 L -138.0 -19.5 A 1.5 1.5 0 0 1 -136.5 -21.0 L -78.0 -21.0 L -78.0 21.0 "
       stroke="#000000"
       stroke-width="0.35 px"
       style="stroke-width:0.1;stroke-miterlimit:4;stroke-dasharray:none;fill:none;fill-rule:evenodd;stroke:#ff0000;stroke-opacity:1" />
    <circle
       cx="-108.0"
       cy="-3.0"
       r="1.5"
       stroke="#000000"
       stroke-width="0.35 px"
       style="stroke-width:0.1;stroke-miterlimit:4;stroke-dasharray:none;fill:none;stroke:#ff0000;stroke-opacity:1"
       id="circle3" />
    <circle
       cx="-123.0"
       cy="-3.0"
       r="1.5"
       stroke="#000000"
       stroke-width="0.35 px"
       style="stroke-width:0.1;stroke-miterlimit:4;stroke-dasharray:none;fill:none;stroke:#ff0000;stroke-opacity:1"
       id="circle5" />
    <title
       id="title7">Clone of Sketch (left side) (2D)</title>
  </g>
</svg>
