<?xml version="1.0" encoding="UTF-8" standalone="no"?>
<!-- Created with Inkscape (http://www.inkscape.org/) -->

<svg
   xmlns:dc="http://purl.org/dc/elements/1.1/"
   xmlns:cc="http://creativecommons.org/ns#"
   xmlns:rdf="http://www.w3.org/1999/02/22-rdf-syntax-ns#"
   xmlns:svg="http://www.w3.org/2000/svg"
   xmlns="http://www.w3.org/2000/svg"
   xmlns:xlink="http://www.w3.org/1999/xlink"
   xmlns:sodipodi="http://sodipodi.sourceforge.net/DTD/sodipodi-0.dtd"
   xmlns:inkscape="http://www.inkscape.org/namespaces/inkscape"
   width="7.7426801mm"
   height="7.7426801mm"
   viewBox="0 0 7.7426801 7.74268"
   version="1.1"
   id="svg4950"
   sodipodi:docname="fuses.svg"
   inkscape:version="0.92.2 (5c3e80d, 2017-08-06)">
  <defs
     id="defs4944">
    <linearGradient
       inkscape:collect="always"
       id="linearGradient5532">
      <stop
         style="stop-color:#000000;stop-opacity:1;"
         offset="0"
         id="stop5528" />
      <stop
         style="stop-color:#000000;stop-opacity:0;"
         offset="1"
         id="stop5530" />
    </linearGradient>
    <linearGradient
       inkscape:collect="always"
       xlink:href="#linearGradient5532"
       id="linearGradient5534"
       x1="47.343285"
       y1="30.904762"
       x2="49.41861"
       y2="30.904762"
       gradientUnits="userSpaceOnUse" />
  </defs>
  <sodipodi:namedview
     id="base"
     pagecolor="#ffffff"
     bordercolor="#666666"
     borderopacity="1.0"
     inkscape:pageopacity="0.0"
     inkscape:pageshadow="2"
     inkscape:zoom="21.361851"
     inkscape:cx="14.631546"
     inkscape:cy="16.332914"
     inkscape:document-units="mm"
     inkscape:current-layer="layer1"
     showgrid="false"
     fit-margin-top="0"
     fit-margin-left="0"
     fit-margin-right="0"
     fit-margin-bottom="0"
     inkscape:window-width="1920"
     inkscape:window-height="1137"
     inkscape:window-x="-8"
     inkscape:window-y="-8"
     inkscape:window-maximized="1" />
  <metadata
     id="metadata4947">
    <rdf:RDF>
      <cc:Work
         rdf:about="">
        <dc:format>image/svg+xml</dc:format>
        <dc:type
           rdf:resource="http://purl.org/dc/dcmitype/StillImage" />
        <dc:title></dc:title>
      </cc:Work>
    </rdf:RDF>
  </metadata>
  <g
     inkscape:label="5"
     inkscape:groupmode="layer"
     id="layer1"
     transform="translate(-45.167726,-26.725458)"
     style="display:inline">
    <path
       style="color:#000000;clip-rule:nonzero;display:inline;overflow:visible;visibility:visible;opacity:1;isolation:auto;mix-blend-mode:normal;color-interpolation:sRGB;color-interpolation-filters:linearRGB;solid-color:#000000;solid-opacity:1;vector-effect:none;fill:#000000;fill-opacity:1;fill-rule:nonzero;stroke:none;stroke-width:0.58452791;stroke-linecap:round;stroke-linejoin:round;stroke-miterlimit:4;stroke-dasharray:none;stroke-dashoffset:0;stroke-opacity:1;color-rendering:auto;image-rendering:auto;shape-rendering:auto;text-rendering:auto;enable-background:accumulate"
       d="m 49.039324,26.725458 a 3.8714878,3.8714878 0 0 0 -3.871598,3.871598 3.8714878,3.8714878 0 0 0 3.871598,3.871082 3.8714878,3.8714878 0 0 0 3.871082,-3.871082 3.8714878,3.8714878 0 0 0 -3.871082,-3.871598 z m -0.889351,2.319755 h 1.901176 l -0.04909,0.472322 h -1.449007 l -0.08475,0.886768 c 0.183623,-0.234381 0.42323,-0.3514 0.718819,-0.3514 0.294096,0 0.541569,0.101344 0.743107,0.304374 0.203031,0.203032 0.304891,0.444303 0.304891,0.72347 0,0.291111 -0.106339,0.541914 -0.318327,0.752409 -0.211988,0.210496 -0.503099,0.315743 -0.873332,0.315743 -0.294096,0 -0.551616,-0.06827 -0.772562,-0.204122 -0.219453,-0.135851 -0.361678,-0.34692 -0.427364,-0.633553 l 0.528133,-0.07855 c 0.103009,0.312011 0.317408,0.468189 0.642855,0.468189 0.200045,0 0.353984,-0.06046 0.46147,-0.181385 0.10898,-0.120922 0.163298,-0.267052 0.163298,-0.438733 0,-0.170187 -0.05374,-0.313503 -0.16123,-0.429947 -0.107488,-0.117938 -0.246899,-0.17725 -0.41858,-0.17725 -0.25976,0 -0.456819,0.118683 -0.591178,0.35605 l -0.492993,-0.09612 z"
       id="path5526"
       inkscape:connector-curvature="0" />
  </g>
  <g
     inkscape:groupmode="layer"
     id="layer6"
     inkscape:label="8"
     style="display:none;opacity:1"
     transform="translate(-2.1287368,-1.1626532)">
    <path
       style="color:#000000;clip-rule:nonzero;display:inline;overflow:visible;visibility:visible;opacity:1;isolation:auto;mix-blend-mode:normal;color-interpolation:sRGB;color-interpolation-filters:linearRGB;solid-color:#000000;solid-opacity:1;vector-effect:none;fill:#000000;fill-opacity:1;fill-rule:nonzero;stroke:none;stroke-width:2.20923948;stroke-linecap:round;stroke-linejoin:round;stroke-miterlimit:4;stroke-dasharray:none;stroke-dashoffset:0;stroke-opacity:1;color-rendering:auto;image-rendering:auto;shape-rendering:auto;text-rendering:auto;enable-background:accumulate"
       d="M 15.736328,1.1054688 A 14.632395,14.632395 0 0 0 1.1054688,15.736328 14.632395,14.632395 0 0 0 15.736328,30.369141 14.632395,14.632395 0 0 0 30.369141,15.736328 14.632395,14.632395 0 0 0 15.736328,1.1054688 Z m 0.07617,8.6777343 c 1.224392,0 2.206163,0.2730039 2.945312,0.8203129 0.744792,0.547309 1.117188,1.273003 1.117188,2.175781 0,1.10026 -0.685547,1.935981 -2.056641,2.505859 1.675782,0.71658 2.513672,1.728082 2.513672,3.03711 0,0.970486 -0.419054,1.774522 -1.259765,2.412109 -0.83507,0.637587 -1.964844,0.957031 -3.386719,0.957031 -1.500868,0 -2.634983,-0.294054 -3.402344,-0.880859 -0.761719,-0.592448 -1.142578,-1.333116 -1.142578,-2.224609 0,-1.269532 0.816623,-2.196181 2.447266,-2.777344 -1.354167,-0.62066 -2.03125,-1.543186 -2.03125,-2.767578 0,-0.947917 0.372395,-1.726563 1.117187,-2.335938 0.750434,-0.615017 1.79579,-0.9218749 3.138672,-0.9218749 z m 0.0098,1.4472659 c -0.592448,0 -1.104384,0.126953 -1.533204,0.380859 -0.423177,0.253906 -0.634765,0.624132 -0.634765,1.109375 0,0.50217 0.232639,0.8852 0.695312,1.150391 0.462674,0.265191 1.139757,0.536024 2.03125,0.8125 1.066407,-0.440104 1.59961,-1.05165 1.59961,-1.835938 0,-0.513455 -0.217882,-0.911241 -0.652344,-1.193359 -0.434462,-0.282118 -0.935981,-0.423828 -1.505859,-0.423828 z m -0.804688,5.263672 c -0.564236,0.203125 -1.019097,0.486545 -1.363281,0.847656 -0.344184,0.355469 -0.515625,0.736328 -0.515625,1.142578 0,0.417535 0.213759,0.802734 0.642578,1.158203 0.434462,0.355469 1.100911,0.533203 1.998047,0.533203 0.744792,0 1.330946,-0.14388 1.759765,-0.43164 0.434462,-0.293403 0.652344,-0.665799 0.652344,-1.117188 0,-0.389323 -0.179904,-0.730035 -0.541015,-1.023437 -0.355469,-0.293403 -1.233507,-0.663629 -2.632813,-1.109375 z"
       transform="matrix(0.26458333,0,0,0.26458333,1.8362482,0.87016463)"
       id="path5526-5"
       inkscape:connector-curvature="0" />
  </g>
  <g
     inkscape:groupmode="layer"
     id="layer4"
     inkscape:label="10"
     style="display:none"
     transform="translate(-2.1287368,-1.1626532)">
    <path
       style="color:#000000;clip-rule:nonzero;display:inline;overflow:visible;visibility:visible;opacity:1;isolation:auto;mix-blend-mode:normal;color-interpolation:sRGB;color-interpolation-filters:linearRGB;solid-color:#000000;solid-opacity:1;vector-effect:none;fill:#000000;fill-opacity:1;fill-rule:nonzero;stroke:none;stroke-width:2.20923948;stroke-linecap:round;stroke-linejoin:round;stroke-miterlimit:4;stroke-dasharray:none;stroke-dashoffset:0;stroke-opacity:1;color-rendering:auto;image-rendering:auto;shape-rendering:auto;text-rendering:auto;enable-background:accumulate"
       d="M 15.736328,1.1054688 A 14.632395,14.632395 0 0 0 1.1054688,15.736328 14.632395,14.632395 0 0 0 15.736328,30.369141 14.632395,14.632395 0 0 0 30.369141,15.736328 14.632395,14.632395 0 0 0 15.736328,1.1054688 Z m -5.572266,8.6484374 h 1.386719 V 19.841797 h 3.267578 v 1.701172 H 5.9746094 V 19.841797 H 9.453125 v -7.294922 c -1.156684,1.009983 -2.2102865,1.703993 -3.1582031,2.082031 v -2.082031 c 0.9648437,-0.366753 1.5698784,-0.626953 1.8125,-0.779297 C 8.3500434,11.609592 8.7055122,11.321832 9.1738281,10.904297 9.6421441,10.48112 9.9722222,10.09809 10.164062,9.7539062 Z M 21.023438,9.8125 c 0.976128,0 1.799262,0.26237 2.470703,0.787109 0.677083,0.519098 1.180555,1.244792 1.507812,2.175782 0.332899,0.925347 0.498047,1.792968 0.498047,2.605468 0,1.359809 -0.154514,2.476997 -0.464844,3.351563 -0.31033,0.868923 -0.803385,1.586154 -1.480468,2.15039 -0.677084,0.558594 -1.527561,0.837891 -2.548829,0.837891 -1.416232,0 -2.508029,-0.54796 -3.27539,-1.642578 -0.767361,-1.10026 -1.150391,-2.496745 -1.150391,-4.189453 0,-1.828125 0.399957,-3.296658 1.201172,-4.408203 C 18.588108,10.368924 19.669271,9.8125 21.023438,9.8125 Z m 0.01758,1.548828 c -1.568577,0 -2.353516,1.449436 -2.353516,4.34961 0,1.31467 0.167101,2.372612 0.5,3.173828 0.332899,0.801215 0.935981,1.203125 1.810547,1.203125 0.586805,0 1.060764,-0.181858 1.421875,-0.542969 0.361111,-0.361111 0.606554,-0.8648 0.736328,-1.513672 0.129774,-0.648872 0.195313,-1.546007 0.195312,-2.691406 0,-0.947917 -0.160807,-1.849176 -0.482421,-2.701172 -0.315973,-0.851997 -0.925348,-1.277344 -1.828125,-1.277344 z"
       transform="matrix(0.26458333,0,0,0.26458333,1.8362482,0.87016463)"
       id="path5526-9"
       inkscape:connector-curvature="0" />
  </g>
  <g
     inkscape:groupmode="layer"
     id="layer5"
     inkscape:label="15"
     style="display:none"
     transform="translate(-2.1287368,-1.1626532)">
    <path
       style="color:#000000;clip-rule:nonzero;display:inline;overflow:visible;visibility:visible;opacity:1;isolation:auto;mix-blend-mode:normal;color-interpolation:sRGB;color-interpolation-filters:linearRGB;solid-color:#000000;solid-opacity:1;vector-effect:none;fill:#000000;fill-opacity:1;fill-rule:nonzero;stroke:none;stroke-width:2.20923948;stroke-linecap:round;stroke-linejoin:round;stroke-miterlimit:4;stroke-dasharray:none;stroke-dashoffset:0;stroke-opacity:1;color-rendering:auto;image-rendering:auto;shape-rendering:auto;text-rendering:auto;enable-background:accumulate"
       d="M 15.736328,1.1054688 A 14.632395,14.632395 0 0 0 1.1054688,15.736328 14.632395,14.632395 0 0 0 15.736328,30.369141 14.632395,14.632395 0 0 0 30.369141,15.736328 14.632395,14.632395 0 0 0 15.736328,1.1054688 Z m -5.654297,8.6484374 h 1.388672 V 19.841797 h 3.267578 v 1.701172 H 5.8925781 v -1.701172 h 3.4785157 v -7.294922 c -1.1566841,1.009983 -2.2083334,1.703993 -3.15625,2.082031 V 12.546875 C 7.1796875,12.180122 7.7827691,11.919922 8.0253906,11.767578 8.2680122,11.609592 8.6234809,11.321832 9.0917969,10.904297 9.5601128,10.48112 9.890191,10.09809 10.082031,9.7539062 Z m 7.619141,0.2363282 h 7.185547 l -0.185547,1.7851566 h -5.476563 l -0.322265,3.351562 c 0.69401,-0.885851 1.599609,-1.328125 2.716797,-1.328125 1.111545,0 2.048828,0.38303 2.810547,1.150391 0.767361,0.767361 1.15039,1.679253 1.15039,2.734375 0,1.10026 -0.399956,2.048177 -1.201172,2.84375 -0.801215,0.795573 -1.901475,1.193359 -3.300781,1.193359 -1.111545,0 -2.084852,-0.256076 -2.919922,-0.769531 -0.829427,-0.513455 -1.368923,-1.313151 -1.617187,-2.396484 l 1.998046,-0.294922 c 0.389323,1.179253 1.199653,1.767578 2.429688,1.767578 0.756076,0 1.335938,-0.228516 1.742188,-0.685547 0.411892,-0.457031 0.61914,-1.009332 0.61914,-1.658203 0,-0.643229 -0.203125,-1.184896 -0.609375,-1.625 -0.40625,-0.445747 -0.935113,-0.667969 -1.583984,-0.667969 -0.981771,0 -1.726563,0.448568 -2.234375,1.345703 l -1.861328,-0.365234 z"
       transform="matrix(0.26458333,0,0,0.26458333,1.8362482,0.87016463)"
       id="path5526-4"
       inkscape:connector-curvature="0" />
  </g>
</svg>
