<?xml version="1.0" encoding="UTF-8" standalone="no"?>
<!-- Created with Inkscape (http://www.inkscape.org/) -->

<svg
   xmlns:dc="http://purl.org/dc/elements/1.1/"
   xmlns:cc="http://creativecommons.org/ns#"
   xmlns:rdf="http://www.w3.org/1999/02/22-rdf-syntax-ns#"
   xmlns:svg="http://www.w3.org/2000/svg"
   xmlns="http://www.w3.org/2000/svg"
   xmlns:xlink="http://www.w3.org/1999/xlink"
   xmlns:sodipodi="http://sodipodi.sourceforge.net/DTD/sodipodi-0.dtd"
   xmlns:inkscape="http://www.inkscape.org/namespaces/inkscape"
   width="16mm"
   height="16mm"
   viewBox="0 0 16 16"
   version="1.1"
   id="svg6294"
   inkscape:version="0.92.2 (5c3e80d, 2017-08-06)"
   sodipodi:docname="knob_engrave.svg">
  <defs
     id="defs6288" />
  <sodipodi:namedview
     id="base"
     pagecolor="#ffffff"
     bordercolor="#666666"
     borderopacity="1.0"
     inkscape:pageopacity="0.0"
     inkscape:pageshadow="2"
     inkscape:zoom="16.172656"
     inkscape:cx="19.693734"
     inkscape:cy="30.267137"
     inkscape:document-units="mm"
     inkscape:current-layer="layer4"
     showgrid="true"
     fit-margin-top="0"
     fit-margin-left="0"
     fit-margin-right="0"
     fit-margin-bottom="0"
     inkscape:window-width="1905"
     inkscape:window-height="1331"
     inkscape:window-x="-6"
     inkscape:window-y="1"
     inkscape:window-maximized="0"
     inkscape:measure-start="439.655,331.145"
     inkscape:measure-end="339.252,225.129"
     showguides="true"
     inkscape:guide-bbox="true"
     guidetolerance="35"
     inkscape:snap-perpendicular="false"
     inkscape:snap-tangential="false"
     objecttolerance="32"
     inkscape:snap-path-clip="true"
     inkscape:snap-path-mask="true"
     gridtolerance="10"
     inkscape:pagecheckerboard="false"
     borderlayer="false"
     inkscape:showpageshadow="true"
     inkscape:snap-to-guides="true"
     inkscape:snap-object-midpoints="true"
     inkscape:snap-page="true">
    <inkscape:grid
       type="xygrid"
       id="grid4633"
       units="mm"
       spacingx="0.49999999"
       spacingy="0.49999999"
       snapvisiblegridlinesonly="true"
       dotted="false"
       visible="false"
       enabled="false"
       originx="-6.778113"
       originy="-7.3234808" />
  </sodipodi:namedview>
  <metadata
     id="metadata6291">
    <rdf:RDF>
      <cc:Work
         rdf:about="">
        <dc:format>image/svg+xml</dc:format>
        <dc:type
           rdf:resource="http://purl.org/dc/dcmitype/StillImage" />
        <dc:title />
      </cc:Work>
    </rdf:RDF>
  </metadata>
  <g
     inkscape:groupmode="layer"
     id="layer4"
     inkscape:label="border">
    <circle
       style="color:#000000;clip-rule:nonzero;display:inline;overflow:visible;visibility:visible;opacity:1;isolation:auto;mix-blend-mode:normal;color-interpolation:sRGB;color-interpolation-filters:linearRGB;solid-color:#000000;solid-opacity:1;vector-effect:none;fill:none;fill-opacity:1;fill-rule:nonzero;stroke:#f70000;stroke-width:0.11203369;stroke-linecap:round;stroke-linejoin:round;stroke-miterlimit:4;stroke-dasharray:none;stroke-dashoffset:0;stroke-opacity:1;color-rendering:auto;image-rendering:auto;shape-rendering:auto;text-rendering:auto;enable-background:accumulate"
       id="path844"
       cx="8"
       cy="8"
       r="7.1939831" />
  </g>
  <g
     inkscape:label="Reference"
     inkscape:groupmode="layer"
     id="layer1"
     transform="translate(447.22675,-148.08723)"
     style="display:none">
    <image
       sodipodi:absref="D:\Development\c172-sim-panel\avionics\garmin_gns_430\430.png"
       xlink:href="430.png"
       width="164.99881"
       height="69"
       preserveAspectRatio="none"
       id="image981"
       x="-452.96689"
       y="101.32852" />
    <text
       xml:space="preserve"
       style="font-style:normal;font-weight:normal;font-size:10.58333302px;line-height:125%;font-family:sans-serif;letter-spacing:0px;word-spacing:0px;fill:#000000;fill-opacity:1;stroke:none;stroke-width:0.26458332px;stroke-linecap:butt;stroke-linejoin:miter;stroke-opacity:1"
       x="-390.86044"
       y="185.38623"
       id="text853"><tspan
         sodipodi:role="line"
         id="tspan851"
         x="-390.86044"
         y="195.04173"
         style="stroke-width:0.26458332px" /></text>
    <text
       xml:space="preserve"
       style="font-style:normal;font-variant:normal;font-weight:normal;font-stretch:normal;font-size:3.06313252px;line-height:125%;font-family:'Archivo Black';-inkscape-font-specification:'Archivo Black, Normal';font-variant-ligatures:normal;font-variant-caps:normal;font-variant-numeric:normal;font-feature-settings:normal;text-align:start;letter-spacing:0px;word-spacing:0px;writing-mode:lr-tb;text-anchor:start;display:inline;fill:#000000;fill-opacity:1;stroke:none;stroke-width:0.24182624px;stroke-linecap:butt;stroke-linejoin:miter;stroke-opacity:1"
       x="-446.98737"
       y="152.65578"
       id="text849-77"
       transform="scale(0.91398905,1.094105)"><tspan
         sodipodi:role="line"
         id="tspan847-2"
         x="-446.98737"
         y="152.65578"
         style="font-style:normal;font-variant:normal;font-weight:normal;font-stretch:normal;font-size:3.06313252px;font-family:'Archivo Black';-inkscape-font-specification:'Archivo Black, Normal';font-variant-ligatures:normal;font-variant-caps:normal;font-variant-numeric:normal;font-feature-settings:normal;text-align:start;writing-mode:lr-tb;text-anchor:start;stroke-width:0.24182624px">CDI</tspan></text>
  </g>
  <g
     inkscape:groupmode="layer"
     id="layer3"
     inkscape:label="Font Reference"
     style="display:none"
     transform="translate(0,2)">
    <text
       xml:space="preserve"
       style="font-style:normal;font-variant:normal;font-weight:500;font-stretch:normal;font-size:3.06916666px;line-height:125%;font-family:'HeldustryFTVBasic Black';-inkscape-font-specification:'HeldustryFTVBasic Black, Medium';font-variant-ligatures:normal;font-variant-caps:normal;font-variant-numeric:normal;font-feature-settings:normal;text-align:center;letter-spacing:0px;word-spacing:0px;writing-mode:lr-tb;text-anchor:middle;display:inline;fill:#000000;fill-opacity:1;stroke:none;stroke-width:0.26458332px;stroke-linecap:butt;stroke-linejoin:miter;stroke-opacity:1"
       x="7.9733844"
       y="5.0013752"
       id="text36-2"><tspan
         sodipodi:role="line"
         id="tspan34-3"
         x="7.9733844"
         y="5.0013752"
         style="font-style:normal;font-variant:normal;font-weight:500;font-stretch:normal;font-size:3.06916666px;font-family:'HeldustryFTVBasic Black';-inkscape-font-specification:'HeldustryFTVBasic Black, Medium';font-variant-ligatures:normal;font-variant-caps:normal;font-variant-numeric:normal;font-feature-settings:normal;text-align:center;writing-mode:lr-tb;text-anchor:middle;stroke-width:0.26458332px"
         dy="0.30000001">PUSH</tspan><tspan
         sodipodi:role="line"
         x="7.9733844"
         y="8.8378334"
         style="font-style:normal;font-variant:normal;font-weight:500;font-stretch:normal;font-size:3.06916666px;font-family:'HeldustryFTVBasic Black';-inkscape-font-specification:'HeldustryFTVBasic Black, Medium';font-variant-ligatures:normal;font-variant-caps:normal;font-variant-numeric:normal;font-feature-settings:normal;text-align:center;writing-mode:lr-tb;text-anchor:middle;stroke-width:0.26458332px"
         id="tspan38-4">C/V</tspan></text>
  </g>
  <g
     style="display:inline"
     inkscape:label="PUSH C/V"
     id="g833"
     inkscape:groupmode="layer"
     transform="translate(0,2)">
    <g
       aria-label="PUSH C/V"
       style="font-style:normal;font-variant:normal;font-weight:500;font-stretch:normal;font-size:3.06916666px;line-height:125%;font-family:'HeldustryFTVBasic Black';-inkscape-font-specification:'HeldustryFTVBasic Black, Medium';font-variant-ligatures:normal;font-variant-caps:normal;font-variant-numeric:normal;font-feature-settings:normal;text-align:center;letter-spacing:0px;word-spacing:0px;writing-mode:lr-tb;text-anchor:middle;display:inline;fill:#000000;fill-opacity:1;stroke:none;stroke-width:0.26458332px;stroke-linecap:butt;stroke-linejoin:miter;stroke-opacity:1"
       id="text831"
       transform="translate(0.99378505,-1.030695)">
      <path
         d="m 4.6821604,4.8159033 q 0,0.082867 -0.024553,0.1994958 -0.021484,0.1166283 -0.098213,0.2240492 -0.076729,0.1043516 -0.2271183,0.1780116 -0.14732,0.07366 -0.3959225,0.07366 H 3.4452862 V 6.3320716 H 2.9235279 V 4.1284099 h 1.0926233 q 0.1442509,0 0.2670175,0.046037 0.1227667,0.042968 0.2117725,0.128905 0.089006,0.085937 0.1381125,0.2148417 0.049107,0.128905 0.049107,0.2977097 z m -0.5186892,-0.00921 q 0,-0.085937 -0.015346,-0.1350434 -0.012277,-0.052176 -0.046037,-0.076729 -0.030692,-0.027622 -0.079798,-0.033761 -0.049107,-0.00921 -0.1166284,-0.00921 h -0.460375 v 0.534035 h 0.4879975 q 0.061383,0 0.1043517,-0.00921 0.046037,-0.012277 0.07366,-0.039899 0.027622,-0.030692 0.039899,-0.085937 0.012277,-0.055245 0.012277,-0.1442508 z"
         style="font-style:normal;font-variant:normal;font-weight:500;font-stretch:normal;font-size:3.06916666px;font-family:'HeldustryFTVBasic Black';-inkscape-font-specification:'HeldustryFTVBasic Black, Medium';font-variant-ligatures:normal;font-variant-caps:normal;font-variant-numeric:normal;font-feature-settings:normal;text-align:center;writing-mode:lr-tb;text-anchor:middle;stroke-width:0.26458332px"
         id="path835"
         inkscape:connector-curvature="0" />
      <path
         d="m 6.7844437,5.6016099 q 0,0.2087034 -0.064452,0.3560234 -0.061383,0.1442508 -0.1780117,0.239395 -0.1166283,0.092075 -0.2885016,0.1350433 -0.1688042,0.042968 -0.3805767,0.042968 -0.239395,0 -0.4112683,-0.052176 Q 5.2928287,6.2676191 5.1823387,6.1663366 5.0749179,6.0650541 5.022742,5.9208033 4.9736354,5.7765524 4.9736354,5.5954716 V 4.1284099 h 0.5217583 v 1.4946842 q 0,0.082867 0.015346,0.1442508 0.018415,0.061383 0.064453,0.1043517 0.046037,0.039899 0.1258359,0.061383 0.079798,0.018415 0.2056341,0.018415 0.2117725,0 0.2823634,-0.079798 0.07366,-0.079798 0.07366,-0.2363258 V 4.1284099 h 0.5217583 z"
         style="font-style:normal;font-variant:normal;font-weight:500;font-stretch:normal;font-size:3.06916666px;font-family:'HeldustryFTVBasic Black';-inkscape-font-specification:'HeldustryFTVBasic Black, Medium';font-variant-ligatures:normal;font-variant-caps:normal;font-variant-numeric:normal;font-feature-settings:normal;text-align:center;writing-mode:lr-tb;text-anchor:middle;stroke-width:0.26458332px"
         id="path837"
         inkscape:connector-curvature="0" />
      <path
         d="m 8.9291675,5.6814083 q 0,0.6967008 -0.9360958,0.6967008 -0.4542367,0 -0.6936317,-0.2056342 Q 7.0631142,5.9668408 7.0631142,5.5371574 h 0.5064125 q 0.00614,0.095144 0.027622,0.1749425 0.021484,0.079798 0.070591,0.1381125 0.052176,0.055245 0.1350433,0.089006 0.082867,0.030692 0.2117725,0.030692 0.2117725,0 0.3069167,-0.061383 0.095144,-0.064452 0.095144,-0.2455333 0,-0.095144 -0.039899,-0.1350434 -0.03683,-0.042969 -0.116628,-0.067522 Q 8.1680142,5.4328058 8.03604,5.4174599 7.907135,5.4021141 7.7414,5.3652841 7.612495,5.3345924 7.502005,5.2977624 7.391515,5.2578633 7.3086475,5.1872724 7.22578,5.1166816 7.1797425,5.0031224 7.133705,4.8895633 7.133705,4.7054133 q 0,-0.1350434 0.039899,-0.2332567 0.042968,-0.1012825 0.11049,-0.1688042 0.070591,-0.070591 0.1595966,-0.1135591 0.092075,-0.042968 0.1872192,-0.064452 0.095144,-0.024553 0.1902883,-0.030692 0.095144,-0.00921 0.1749425,-0.00921 0.2700867,0 0.4388909,0.067522 0.1688041,0.067522 0.2608791,0.1749425 0.095144,0.1074208 0.1258359,0.2424641 0.033761,0.1350434 0.033761,0.2670175 h -0.497205 q -0.012277,-0.055245 -0.018415,-0.1227666 -0.00614,-0.067522 -0.03683,-0.1166284 -0.024553,-0.042968 -0.092075,-0.076729 -0.064452,-0.03683 -0.2056342,-0.03683 -0.11049,0 -0.1810808,0.015346 -0.070591,0.015346 -0.11049,0.046038 -0.039899,0.030692 -0.055245,0.079798 -0.015346,0.049107 -0.015346,0.1166284 0,0.079798 0.042968,0.1166283 0.046037,0.033761 0.165735,0.058314 0.1258358,0.027622 0.2547408,0.046037 0.128905,0.018415 0.2486025,0.046037 0.1196975,0.024553 0.2240492,0.067522 0.1043517,0.042968 0.1810808,0.1196975 0.079798,0.07366 0.1227667,0.1933575 0.046038,0.1166284 0.046038,0.2915709 z"
         style="font-style:normal;font-variant:normal;font-weight:500;font-stretch:normal;font-size:3.06916666px;font-family:'HeldustryFTVBasic Black';-inkscape-font-specification:'HeldustryFTVBasic Black, Medium';font-variant-ligatures:normal;font-variant-caps:normal;font-variant-numeric:normal;font-feature-settings:normal;text-align:center;writing-mode:lr-tb;text-anchor:middle;stroke-width:0.26458332px"
         id="path839"
         inkscape:connector-curvature="0" />
      <path
         d="M 11.088902,6.3320716 H 10.567144 V 5.3806299 H 9.7814369 V 6.3320716 H 9.2596785 V 4.1284099 H 9.7814369 V 4.9509466 H 10.567144 V 4.1284099 h 0.521758 z"
         style="font-style:normal;font-variant:normal;font-weight:500;font-stretch:normal;font-size:3.06916666px;font-family:'HeldustryFTVBasic Black';-inkscape-font-specification:'HeldustryFTVBasic Black, Medium';font-variant-ligatures:normal;font-variant-caps:normal;font-variant-numeric:normal;font-feature-settings:normal;text-align:center;writing-mode:lr-tb;text-anchor:middle;stroke-width:0.26458332px"
         id="path841"
         inkscape:connector-curvature="0" />
      <path
         d="m 6.5892878,9.0582699 q -0.018415,0.1718734 -0.076729,0.3284009 -0.055245,0.1534583 -0.165735,0.2700866 -0.11049,0.1166283 -0.2854325,0.1872192 -0.1749425,0.067522 -0.4266141,0.067522 -0.2885017,0 -0.4910667,-0.076729 Q 4.9442145,9.7549707 4.8183786,9.6076507 4.695612,9.4572616 4.6372978,9.2393508 4.5820528,9.0214399 4.5820528,8.7421458 q 0,-0.25781 0.061383,-0.4634442 0.061383,-0.2087033 0.1902884,-0.3529542 0.128905,-0.14732 0.3253316,-0.2240491 0.1994959,-0.079798 0.4726517,-0.079798 0.276225,0 0.4511675,0.070591 0.1749425,0.067522 0.2792942,0.1780116 0.1043516,0.11049 0.1503891,0.2516717 0.046037,0.1411817 0.064452,0.2823633 H 6.0828753 Q 6.0644603,8.3308774 6.0429761,8.2633558 6.021492,8.1958341 5.9754545,8.1467274 5.9324861,8.0976208 5.855757,8.0699983 5.782097,8.0393066 5.6562611,8.0393066 q -0.1534583,0 -0.25781,0.039899 Q 5.2940995,8.1191046 5.229647,8.2081106 5.165195,8.2971166 5.137572,8.4444364 5.10995,8.5886872 5.10995,8.8004597 q 0,0.2148417 0.03683,0.349885 0.039899,0.1319742 0.1074208,0.2087034 0.070591,0.07366 0.1688042,0.1012824 0.1012825,0.027622 0.2240491,0.027622 0.1258359,0 0.1994959,-0.030692 0.07366,-0.030692 0.1166283,-0.085937 0.042968,-0.058314 0.067522,-0.1350433 0.024553,-0.079798 0.049107,-0.1780117 z"
         style="font-style:normal;font-variant:normal;font-weight:500;font-stretch:normal;font-size:3.06916666px;font-family:'HeldustryFTVBasic Black';-inkscape-font-specification:'HeldustryFTVBasic Black, Medium';font-variant-ligatures:normal;font-variant-caps:normal;font-variant-numeric:normal;font-feature-settings:normal;text-align:center;writing-mode:lr-tb;text-anchor:middle;stroke-width:0.26458332px"
         id="path843"
         inkscape:connector-curvature="0" />
      <path
         d="M 7.6292556,7.6679374 H 7.1995723 l -0.607695,2.3080133 h 0.4296833 z"
         style="font-style:normal;font-variant:normal;font-weight:500;font-stretch:normal;font-size:3.06916666px;font-family:'HeldustryFTVBasic Black';-inkscape-font-specification:'HeldustryFTVBasic Black, Medium';font-variant-ligatures:normal;font-variant-caps:normal;font-variant-numeric:normal;font-feature-settings:normal;text-align:center;writing-mode:lr-tb;text-anchor:middle;stroke-width:0.26458332px"
         id="path845"
         inkscape:connector-curvature="0" />
      <path
         d="M 9.5402434,7.6648683 8.7729517,9.8685299 H 8.2910926 l -0.7366,-2.2036616 H 8.1100117 L 8.5396951,9.1227224 8.9877934,7.6648683 Z"
         style="font-style:normal;font-variant:normal;font-weight:500;font-stretch:normal;font-size:3.06916666px;font-family:'HeldustryFTVBasic Black';-inkscape-font-specification:'HeldustryFTVBasic Black, Medium';font-variant-ligatures:normal;font-variant-caps:normal;font-variant-numeric:normal;font-feature-settings:normal;text-align:center;writing-mode:lr-tb;text-anchor:middle;stroke-width:0.26458332px"
         id="path847"
         inkscape:connector-curvature="0" />
    </g>
  </g>
  <g
     inkscape:groupmode="layer"
     id="layer2"
     inkscape:label="PUSH CRSR"
     style="display:none"
     transform="translate(0,2)"
     sodipodi:insensitive="true">
    <g
       aria-label="PUSH CRSR"
       style="font-style:normal;font-variant:normal;font-weight:500;font-stretch:normal;font-size:3.06916666px;line-height:125%;font-family:'HeldustryFTVBasic Black';-inkscape-font-specification:'HeldustryFTVBasic Black, Medium';font-variant-ligatures:normal;font-variant-caps:normal;font-variant-numeric:normal;font-feature-settings:normal;text-align:center;letter-spacing:0px;word-spacing:0px;writing-mode:lr-tb;text-anchor:middle;fill:#000000;fill-opacity:1;stroke:none;stroke-width:0.26458332px;stroke-linecap:butt;stroke-linejoin:miter;stroke-opacity:1"
       id="text36"
       transform="translate(0.9999957,-1.0000033)">
      <path
         d="m 4.6821604,4.8159033 q 0,0.082867 -0.024553,0.1994958 -0.021484,0.1166283 -0.098213,0.2240492 -0.076729,0.1043516 -0.2271183,0.1780116 -0.14732,0.07366 -0.3959225,0.07366 H 3.4452862 V 6.3320716 H 2.9235279 V 4.1284099 h 1.0926233 q 0.1442509,0 0.2670175,0.046037 0.1227667,0.042968 0.2117725,0.128905 0.089006,0.085937 0.1381125,0.2148417 0.049107,0.128905 0.049107,0.2977097 z m -0.5186892,-0.00921 q 0,-0.085937 -0.015346,-0.1350434 -0.012277,-0.052176 -0.046037,-0.076729 -0.030692,-0.027622 -0.079798,-0.033761 -0.049107,-0.00921 -0.1166284,-0.00921 h -0.460375 v 0.534035 h 0.4879975 q 0.061383,0 0.1043517,-0.00921 0.046037,-0.012277 0.07366,-0.039899 0.027622,-0.030692 0.039899,-0.085937 0.012277,-0.055245 0.012277,-0.1442508 z"
         style="font-style:normal;font-variant:normal;font-weight:500;font-stretch:normal;font-size:3.06916666px;font-family:'HeldustryFTVBasic Black';-inkscape-font-specification:'HeldustryFTVBasic Black, Medium';font-variant-ligatures:normal;font-variant-caps:normal;font-variant-numeric:normal;font-feature-settings:normal;text-align:center;writing-mode:lr-tb;text-anchor:middle;stroke-width:0.26458332px"
         id="path850"
         inkscape:connector-curvature="0" />
      <path
         d="m 6.7844437,5.6016099 q 0,0.2087034 -0.064452,0.3560234 -0.061383,0.1442508 -0.1780117,0.239395 -0.1166283,0.092075 -0.2885016,0.1350433 -0.1688042,0.042968 -0.3805767,0.042968 -0.239395,0 -0.4112683,-0.052176 Q 5.2928287,6.2676191 5.1823387,6.1663366 5.0749179,6.0650541 5.022742,5.9208033 4.9736354,5.7765524 4.9736354,5.5954716 V 4.1284099 h 0.5217583 v 1.4946842 q 0,0.082867 0.015346,0.1442508 0.018415,0.061383 0.064453,0.1043517 0.046037,0.039899 0.1258359,0.061383 0.079798,0.018415 0.2056341,0.018415 0.2117725,0 0.2823634,-0.079798 0.07366,-0.079798 0.07366,-0.2363258 V 4.1284099 h 0.5217583 z"
         style="font-style:normal;font-variant:normal;font-weight:500;font-stretch:normal;font-size:3.06916666px;font-family:'HeldustryFTVBasic Black';-inkscape-font-specification:'HeldustryFTVBasic Black, Medium';font-variant-ligatures:normal;font-variant-caps:normal;font-variant-numeric:normal;font-feature-settings:normal;text-align:center;writing-mode:lr-tb;text-anchor:middle;stroke-width:0.26458332px"
         id="path852"
         inkscape:connector-curvature="0" />
      <path
         d="m 8.9291675,5.6814083 q 0,0.6967008 -0.9360958,0.6967008 -0.4542367,0 -0.6936317,-0.2056342 Q 7.0631142,5.9668408 7.0631142,5.5371574 h 0.5064125 q 0.00614,0.095144 0.027622,0.1749425 0.021484,0.079798 0.070591,0.1381125 0.052176,0.055245 0.1350433,0.089006 0.082867,0.030692 0.2117725,0.030692 0.2117725,0 0.3069167,-0.061383 0.095144,-0.064452 0.095144,-0.2455333 0,-0.095144 -0.039899,-0.1350434 -0.03683,-0.042969 -0.116628,-0.067522 Q 8.1680142,5.4328058 8.03604,5.4174599 7.907135,5.4021141 7.7414,5.3652841 7.612495,5.3345924 7.502005,5.2977624 7.391515,5.2578633 7.3086475,5.1872724 7.22578,5.1166816 7.1797425,5.0031224 7.133705,4.8895633 7.133705,4.7054133 q 0,-0.1350434 0.039899,-0.2332567 0.042968,-0.1012825 0.11049,-0.1688042 0.070591,-0.070591 0.1595966,-0.1135591 0.092075,-0.042968 0.1872192,-0.064452 0.095144,-0.024553 0.1902883,-0.030692 0.095144,-0.00921 0.1749425,-0.00921 0.2700867,0 0.4388909,0.067522 0.1688041,0.067522 0.2608791,0.1749425 0.095144,0.1074208 0.1258359,0.2424641 0.033761,0.1350434 0.033761,0.2670175 h -0.497205 q -0.012277,-0.055245 -0.018415,-0.1227666 -0.00614,-0.067522 -0.03683,-0.1166284 -0.024553,-0.042968 -0.092075,-0.076729 -0.064452,-0.03683 -0.2056342,-0.03683 -0.11049,0 -0.1810808,0.015346 -0.070591,0.015346 -0.11049,0.046038 -0.039899,0.030692 -0.055245,0.079798 -0.015346,0.049107 -0.015346,0.1166284 0,0.079798 0.042968,0.1166283 0.046037,0.033761 0.165735,0.058314 0.1258358,0.027622 0.2547408,0.046037 0.128905,0.018415 0.2486025,0.046037 0.1196975,0.024553 0.2240492,0.067522 0.1043517,0.042968 0.1810808,0.1196975 0.079798,0.07366 0.1227667,0.1933575 0.046038,0.1166284 0.046038,0.2915709 z"
         style="font-style:normal;font-variant:normal;font-weight:500;font-stretch:normal;font-size:3.06916666px;font-family:'HeldustryFTVBasic Black';-inkscape-font-specification:'HeldustryFTVBasic Black, Medium';font-variant-ligatures:normal;font-variant-caps:normal;font-variant-numeric:normal;font-feature-settings:normal;text-align:center;writing-mode:lr-tb;text-anchor:middle;stroke-width:0.26458332px"
         id="path854"
         inkscape:connector-curvature="0" />
      <path
         d="M 11.088902,6.3320716 H 10.567144 V 5.3806299 H 9.7814369 V 6.3320716 H 9.2596785 V 4.1284099 H 9.7814369 V 4.9509466 H 10.567144 V 4.1284099 h 0.521758 z"
         style="font-style:normal;font-variant:normal;font-weight:500;font-stretch:normal;font-size:3.06916666px;font-family:'HeldustryFTVBasic Black';-inkscape-font-specification:'HeldustryFTVBasic Black, Medium';font-variant-ligatures:normal;font-variant-caps:normal;font-variant-numeric:normal;font-feature-settings:normal;text-align:center;writing-mode:lr-tb;text-anchor:middle;stroke-width:0.26458332px"
         id="path856"
         inkscape:connector-curvature="0" />
      <path
         d="m 4.7729646,9.0582699 q -0.018415,0.1718734 -0.076729,0.3284009 -0.055245,0.1534583 -0.165735,0.2700866 -0.11049,0.1166283 -0.2854325,0.1872192 -0.1749425,0.067522 -0.4266142,0.067522 -0.2885016,0 -0.4910666,-0.076729 Q 3.1278912,9.7549707 3.0020554,9.6076507 2.8792887,9.4572616 2.8209746,9.2393508 2.7657296,9.0214399 2.7657296,8.7421458 q 0,-0.25781 0.061383,-0.4634442 0.061383,-0.2087033 0.1902883,-0.3529542 0.128905,-0.14732 0.3253317,-0.2240491 0.1994958,-0.079798 0.4726517,-0.079798 0.276225,0 0.4511675,0.070591 0.1749425,0.067522 0.2792941,0.1780116 0.1043517,0.11049 0.1503892,0.2516717 0.046037,0.1411817 0.064452,0.2823633 h -0.494135 q -0.018415,-0.07366 -0.039899,-0.1411816 -0.021484,-0.067522 -0.067522,-0.1166284 -0.042968,-0.049107 -0.1196975,-0.076729 -0.07366,-0.030692 -0.1994958,-0.030692 -0.1534583,0 -0.25781,0.039899 -0.1043517,0.039899 -0.1688042,0.128905 -0.064452,0.089006 -0.092075,0.2363258 -0.027623,0.1442508 -0.027623,0.3560233 0,0.2148417 0.03683,0.349885 0.039899,0.1319742 0.1074209,0.2087034 0.070591,0.07366 0.1688041,0.1012824 0.1012825,0.027622 0.2240492,0.027622 0.1258358,0 0.1994958,-0.030692 0.07366,-0.030692 0.1166284,-0.085937 0.042968,-0.058314 0.067522,-0.1350433 0.024553,-0.079798 0.049107,-0.1780117 z"
         style="font-style:normal;font-variant:normal;font-weight:500;font-stretch:normal;font-size:3.06916666px;font-family:'HeldustryFTVBasic Black';-inkscape-font-specification:'HeldustryFTVBasic Black, Medium';font-variant-ligatures:normal;font-variant-caps:normal;font-variant-numeric:normal;font-feature-settings:normal;text-align:center;writing-mode:lr-tb;text-anchor:middle;stroke-width:0.26458332px"
         id="path858"
         inkscape:connector-curvature="0" />
      <path
         d="M 6.9362474,9.8685299 H 6.3930049 Q 6.3438982,9.7948699 6.3254832,9.6966566 6.3101374,9.5953741 6.3039991,9.4910224 6.2978607,9.3866708 6.2886532,9.2853883 6.2794457,9.1841058 6.2456849,9.1073766 6.2303391,9.0705466 6.1904399,9.0490624 6.1536099,9.0275783 6.0738116,9.0275783 H 5.5643299 V 9.8685299 H 5.0425716 V 7.6648683 h 1.0956925 q 0.1196975,0 0.2516716,0.021484 0.1350434,0.018415 0.2455334,0.085937 0.1135591,0.064452 0.18415,0.1933575 0.07366,0.128905 0.07366,0.3468158 0,0.202565 -0.089006,0.3222625 -0.085937,0.1196975 -0.2240491,0.1626659 0.061383,0.024553 0.1012825,0.079798 0.042968,0.055245 0.067522,0.1227667 0.024553,0.067522 0.03683,0.1381125 0.012277,0.070591 0.018415,0.128905 0.00921,0.098213 0.012277,0.1718733 0.00614,0.07366 0.015346,0.1411816 0.012277,0.067522 0.033761,0.1350434 0.024553,0.067522 0.070591,0.1534583 z M 6.3623132,8.3400849 q 0,-0.07366 -0.012277,-0.1196975 -0.00921,-0.049107 -0.03683,-0.076729 -0.027622,-0.030692 -0.076729,-0.039899 -0.049107,-0.012277 -0.1227667,-0.012277 H 5.5643299 v 0.5217584 h 0.5064125 q 0.098213,0 0.1565275,-0.015346 0.058314,-0.018415 0.085937,-0.052176 0.030692,-0.033761 0.039899,-0.082867 0.00921,-0.052176 0.00921,-0.1227667 z"
         style="font-style:normal;font-variant:normal;font-weight:500;font-stretch:normal;font-size:3.06916666px;font-family:'HeldustryFTVBasic Black';-inkscape-font-specification:'HeldustryFTVBasic Black, Medium';font-variant-ligatures:normal;font-variant-caps:normal;font-variant-numeric:normal;font-feature-settings:normal;text-align:center;writing-mode:lr-tb;text-anchor:middle;stroke-width:0.26458332px"
         id="path860"
         inkscape:connector-curvature="0" />
      <path
         d="m 9.0100928,9.2178666 q 0,0.6967008 -0.9360958,0.6967008 -0.4542367,0 -0.6936317,-0.2056342 Q 7.1440395,9.5032991 7.1440395,9.0736158 H 7.650452 q 0.00614,0.095144 0.027623,0.1749425 0.021484,0.079798 0.070591,0.1381125 0.052176,0.055245 0.1350434,0.089006 0.082868,0.030692 0.2117725,0.030692 0.2117725,0 0.3069166,-0.061383 0.095144,-0.064452 0.095144,-0.2455333 0,-0.095144 -0.039899,-0.1350433 Q 8.4208135,9.0214412 8.3410152,8.9968872 8.2489402,8.9692652 8.116966,8.9539192 7.988061,8.9385732 7.822326,8.9017432 7.693421,8.8710512 7.582931,8.8342212 7.472441,8.7943222 7.3895735,8.7237312 7.3067065,8.6531402 7.2606685,8.5395812 7.2146305,8.426022 7.2146305,8.241872 q 0,-0.1350433 0.039899,-0.2332567 0.042968,-0.1012825 0.11049,-0.1688041 0.070591,-0.070591 0.1595967,-0.1135592 0.092075,-0.042968 0.1872191,-0.064453 0.095144,-0.024553 0.1902884,-0.030692 0.095144,-0.00921 0.1749425,-0.00921 0.2700866,0 0.4388908,0.067522 0.1688042,0.067522 0.2608792,0.1749425 0.095144,0.1074208 0.1258358,0.2424642 0.033761,0.1350433 0.033761,0.2670175 H 8.439228 Q 8.426951,8.3185982 8.420813,8.2510765 8.414673,8.1835545 8.383983,8.1344482 8.35943,8.0914802 8.291908,8.0577192 q -0.064452,-0.03683 -0.2056341,-0.03683 -0.11049,0 -0.1810809,0.015346 -0.070591,0.015346 -0.11049,0.046038 -0.039899,0.030692 -0.055245,0.079798 -0.015346,0.049107 -0.015346,0.1166283 0,0.079798 0.042968,0.1166283 0.046037,0.033761 0.165735,0.058314 0.1258359,0.027622 0.2547409,0.046038 0.128905,0.018415 0.2486025,0.046037 0.1196975,0.024553 0.2240491,0.067522 0.1043517,0.042968 0.1810809,0.1196975 0.079798,0.07366 0.1227666,0.1933575 0.046038,0.1166283 0.046038,0.2915708 z"
         style="font-style:normal;font-variant:normal;font-weight:500;font-stretch:normal;font-size:3.06916666px;font-family:'HeldustryFTVBasic Black';-inkscape-font-specification:'HeldustryFTVBasic Black, Medium';font-variant-ligatures:normal;font-variant-caps:normal;font-variant-numeric:normal;font-feature-settings:normal;text-align:center;writing-mode:lr-tb;text-anchor:middle;stroke-width:0.26458332px"
         id="path862"
         inkscape:connector-curvature="0" />
      <path
         d="m 11.234279,9.8685299 h -0.543242 q -0.04911,-0.07366 -0.06752,-0.1718733 -0.01535,-0.1012825 -0.02148,-0.2056342 -0.0061,-0.1043516 -0.01535,-0.2056341 -0.0092,-0.1012825 -0.04297,-0.1780117 -0.01535,-0.03683 -0.05524,-0.058314 -0.03683,-0.021484 -0.116629,-0.021484 H 9.8623617 V 9.8685299 H 9.3406034 V 7.6648683 h 1.0956926 q 0.119697,0 0.251672,0.021484 0.135043,0.018415 0.245533,0.085937 0.113559,0.064452 0.18415,0.1933575 0.07366,0.128905 0.07366,0.3468158 0,0.202565 -0.08901,0.3222625 -0.08594,0.1196975 -0.224049,0.1626659 0.06138,0.024553 0.101282,0.079798 0.04297,0.055245 0.06752,0.1227667 0.02455,0.067522 0.03683,0.1381125 0.01228,0.070591 0.01841,0.128905 0.0092,0.098213 0.01228,0.1718733 0.0061,0.07366 0.01535,0.1411816 0.01228,0.067522 0.03376,0.1350434 0.02455,0.067522 0.07059,0.1534583 z m -0.573934,-1.528445 q 0,-0.07366 -0.01228,-0.1196975 -0.0092,-0.049107 -0.03683,-0.076729 -0.02762,-0.030692 -0.07673,-0.039899 -0.04911,-0.012277 -0.122766,-0.012277 H 9.8623617 v 0.5217584 h 0.5064123 q 0.09821,0 0.156528,-0.015346 0.05831,-0.018415 0.08594,-0.052176 0.03069,-0.033761 0.0399,-0.082867 0.0092,-0.052176 0.0092,-0.1227667 z"
         style="font-style:normal;font-variant:normal;font-weight:500;font-stretch:normal;font-size:3.06916666px;font-family:'HeldustryFTVBasic Black';-inkscape-font-specification:'HeldustryFTVBasic Black, Medium';font-variant-ligatures:normal;font-variant-caps:normal;font-variant-numeric:normal;font-feature-settings:normal;text-align:center;writing-mode:lr-tb;text-anchor:middle;stroke-width:0.26458332px"
         id="path864"
         inkscape:connector-curvature="0" />
    </g>
  </g>
</svg>
